<?xml version="1.0" standalone="no"?><!DOCTYPE svg PUBLIC "-//W3C//DTD SVG 1.1//EN" "http://www.w3.org/Graphics/SVG/1.1/DTD/svg11.dtd"><svg class="icon" style="" viewBox="0 0 1402 1024" version="1.1" xmlns="http://www.w3.org/2000/svg" p-id="5901" xmlns:xlink="http://www.w3.org/1999/xlink" width="273.828125" height="200"><defs><style type="text/css"><![CDATA[

]]></style></defs><path d="M1211.947207 0.000635c98.463118-0.250542 181.321031 73.62364 189.195217 168.686542 7.981561 96.45878-60.7744 180.712571-159.845978 196.675694-22.799348 3.686551-45.27657 3.221258-67.467458-1.753796-8.733188-1.968547-12.02603 0.572668-15.855747 7.050976-69.579172 117.325373-139.122552 234.686538-209.381767 351.618202-7.265726 12.097613 1.646421 13.922993 7.695227 18.611713 48.247286 37.295009 70.617133 86.114963 62.671363 145.386109-8.303687 61.955528-44.310193 105.299343-104.476133 127.633398-64.281992 23.837309-136.080253 4.366594-179.746194-47.066158-43.880692-51.683294-49.857915-122.944679-14.245119-180.605196 6.084598-9.842733 6.263557-14.101951-4.008677-21.475053-98.355743-70.831883-196.246193-142.308018-293.993476-213.92732-8.196312-6.013015-14.28091-7.265726-23.944684-2.720173-22.334055 10.451192-46.600865 14.459869-71.154009 10.916485-10.630151-1.539045-14.996745 1.861171-19.757049 9.914316-29.206072 49.714748-58.591103 99.32212-88.51301 148.643159-5.547722 9.162689-5.798264 14.603036 1.574837 23.873101 32.964206 41.411061 37.151842 86.651839 12.348155 133.216912-22.799348 42.771147-73.050972 68.648586-121.906718 62.277654-52.363338-6.836225-88.656177-34.896961-105.084593-84.289583-28.597612-86.150754 48.497828-171.048797 140.124721-154.477215 10.308025 1.861171 15.032537-0.966377 19.900216-9.305856 27.667027-47.388284 55.584596-94.669192 84.218-141.520599 6.227765-10.164858 6.084598-15.462038-3.507592-23.980476-45.348154-40.086766-58.412144-102.113877-34.324293-155.837301C236.478716 313.965911 292.313853 281.32383 353.124045 285.260923c57.696309 3.758134 108.019517 43.880692 124.447932 99.572663 11.059652 37.473968 6.299349 73.301514-13.994576 106.695222-5.368763 8.804772-3.829718 12.670281 3.972885 18.289587 99.071578 71.726677 197.964197 143.703896 296.749441 215.860075 6.514099 4.760303 11.274403 6.370932 19.255964 2.004338 27.344901-14.996745 57.231016-20.902385 88.369843-17.895878 11.131236 1.073753 15.676789-2.899132 20.79501-11.560737 68.612794-115.965286 137.476131-231.787406 206.768969-347.358983 6.227765-10.379609 6.478308-15.462038-4.116052-23.515183-63.100864-47.960952-87.117132-129.959863-60.917567-203.834045C1060.369125 50.216468 1132.274761 0.215386 1211.947207 0.000635L1211.947207 0.000635zM1211.947207 0.000635" p-id="5902" fill="#b1becb"></path></svg>