<?xml version="1.0" encoding="utf-8"?>
<!-- Generator: Adobe Illustrator 19.0.0, SVG Export Plug-In . SVG Version: 6.00 Build 0)  -->
<svg version="1.1" baseProfile="tiny" id="图层_1"
	 xmlns="http://www.w3.org/2000/svg" xmlns:xlink="http://www.w3.org/1999/xlink" x="0px" y="0px" viewBox="0 0 200 200"
	 xml:space="preserve">
<g id="XMLID_2_">
	<path id="XMLID_3_" d="M20,92.8h4.3v6.5H20v16.8h-9V99.3H7.7v-6.5h3.3v-1.1c0-1,0.1-2,0.3-3.1c0.2-1.1,0.6-2.1,1.2-2.8
		c0.6-0.7,1.4-1.3,2.4-1.8s2.5-0.7,4.5-0.7c1.6,0,3.8,0.2,6.8,0.5l-1,5.4c-1.1-0.2-1.9-0.3-2.6-0.3c-0.8,0-1.4,0.1-1.7,0.4
		c-0.4,0.3-0.6,0.7-0.7,1.3C20.1,91.1,20,91.8,20,92.8z"/>
	<path id="XMLID_5_" d="M27.9,83.9h8.9V90h-8.9V83.9z M27.9,92.8h8.9v23.3h-8.9V92.8z"/>
	<path id="XMLID_8_" d="M42.9,83.9h9v32.2h-9V83.9z"/>
	<path id="XMLID_10_" d="M83.4,106.7H65.5c0.2,1.4,0.5,2.5,1.2,3.2c0.9,1,2,1.5,3.4,1.5c0.9,0,1.7-0.2,2.5-0.7
		c0.5-0.3,1-0.8,1.6-1.5l8.8,0.8c-1.3,2.3-3,4-4.9,5c-1.9,1-4.6,1.5-8.2,1.5c-3.1,0-5.5-0.4-7.3-1.3s-3.2-2.3-4.4-4.1
		c-1.2-1.9-1.7-4.1-1.7-6.7c0-3.6,1.2-6.6,3.5-8.8c2.3-2.3,5.6-3.4,9.7-3.4c3.3,0,6,0.5,7.9,1.5c1.9,1,3.4,2.5,4.4,4.4
		s1.5,4.4,1.5,7.5V106.7z M74.3,102.4c-0.2-1.7-0.6-3-1.4-3.7c-0.8-0.7-1.7-1.1-3-1.1c-1.4,0-2.6,0.6-3.4,1.7
		c-0.5,0.7-0.9,1.7-1,3.1H74.3z"/>
	<path id="XMLID_13_" d="M87.1,83.9h9v11.2c0.9-0.9,1.9-1.6,3-2.1c1.1-0.5,2.4-0.7,3.8-0.7c2.8,0,5.2,1,7,3.1c1.9,2,2.8,5,2.8,8.8
		c0,2.5-0.4,4.8-1.3,6.7c-0.8,1.9-2,3.4-3.5,4.3c-1.5,1-3.2,1.4-5,1.4c-1.6,0-3-0.3-4.3-1c-1-0.5-2-1.5-3.2-3v3.4h-8.4V83.9z
		 M96.1,104.4c0,2,0.4,3.5,1.1,4.4c0.8,0.9,1.7,1.3,2.9,1.3c1.1,0,2-0.4,2.7-1.3c0.7-0.9,1.1-2.4,1.1-4.5c0-1.8-0.4-3.2-1.1-4.1
		c-0.7-0.9-1.6-1.3-2.6-1.3c-1.2,0-2.2,0.5-3,1.4C96.4,101.2,96.1,102.6,96.1,104.4z"/>
	<path id="XMLID_16_" d="M142.9,106.7H125c0.2,1.4,0.5,2.5,1.2,3.2c0.9,1,2,1.5,3.4,1.5c0.9,0,1.7-0.2,2.5-0.7
		c0.5-0.3,1-0.8,1.6-1.5l8.8,0.8c-1.3,2.3-3,4-4.9,5c-1.9,1-4.6,1.5-8.2,1.5c-3.1,0-5.5-0.4-7.3-1.3s-3.2-2.3-4.4-4.1
		c-1.2-1.9-1.7-4.1-1.7-6.7c0-3.6,1.2-6.6,3.5-8.8c2.3-2.3,5.6-3.4,9.7-3.4c3.3,0,6,0.5,7.9,1.5c1.9,1,3.4,2.5,4.4,4.4
		s1.5,4.4,1.5,7.5V106.7z M133.8,102.4c-0.2-1.7-0.6-3-1.4-3.7c-0.8-0.7-1.7-1.1-3-1.1c-1.4,0-2.6,0.6-3.4,1.7
		c-0.5,0.7-0.9,1.7-1,3.1H133.8z"/>
	<path id="XMLID_19_" d="M155.2,100.3l-8.5-0.9c0.3-1.5,0.8-2.7,1.4-3.5s1.5-1.6,2.6-2.2c0.8-0.5,1.9-0.8,3.4-1.1
		c1.4-0.2,3-0.4,4.7-0.4c2.7,0,4.8,0.1,6.5,0.4c1.6,0.3,3,0.9,4.1,1.9c0.8,0.7,1.4,1.6,1.8,2.8c0.4,1.2,0.7,2.4,0.7,3.5v10.3
		c0,1.1,0.1,2,0.2,2.6s0.4,1.4,0.9,2.4h-8.4c-0.3-0.6-0.6-1.1-0.7-1.4c-0.1-0.3-0.2-0.8-0.3-1.5c-1.2,1.1-2.3,1.9-3.5,2.4
		c-1.6,0.6-3.4,1-5.5,1c-2.8,0-4.9-0.6-6.3-1.9c-1.4-1.3-2.2-2.9-2.2-4.8c0-1.8,0.5-3.2,1.6-4.4s3-2,5.8-2.5
		c3.4-0.7,5.5-1.1,6.5-1.4c1-0.3,2-0.6,3.2-1.1c0-1.1-0.2-1.9-0.7-2.3c-0.5-0.4-1.3-0.7-2.4-0.7c-1.5,0-2.6,0.2-3.3,0.7
		C156,98.6,155.5,99.3,155.2,100.3z M162.9,105c-1.2,0.4-2.5,0.8-3.8,1.2c-1.8,0.5-3,1-3.4,1.4c-0.5,0.5-0.7,1-0.7,1.6
		c0,0.7,0.2,1.3,0.7,1.7s1.2,0.7,2.2,0.7c1,0,1.9-0.2,2.8-0.7c0.9-0.5,1.5-1.1,1.8-1.8c0.4-0.7,0.5-1.6,0.5-2.7V105z"/>
	<path id="XMLID_22_" d="M187,83.9v8.9h4.9v6.5H187v8.3c0,1,0.1,1.7,0.3,2c0.3,0.5,0.8,0.7,1.5,0.7c0.7,0,1.6-0.2,2.8-0.6l0.7,6.2
		c-2.2,0.5-4.3,0.7-6.2,0.7c-2.2,0-3.9-0.3-4.9-0.9s-1.8-1.4-2.3-2.6s-0.8-3-0.8-5.6v-8.2h-3.3v-6.5h3.3v-4.3L187,83.9z"/>
</g>
</svg>
