<?xml version="1.0" encoding="utf-8"?>
<!-- Generator: Adobe Illustrator 19.0.0, SVG Export Plug-In . SVG Version: 6.00 Build 0)  -->
<svg version="1.1" id="图层_1" xmlns="http://www.w3.org/2000/svg" xmlns:xlink="http://www.w3.org/1999/xlink" x="0px" y="0px"
	 viewBox="-149 151 200 200" style="enable-background:new -149 151 200 200;" xml:space="preserve">
<style type="text/css">
	.st0{fill:#4FC3B9;}
</style>
<path class="st0" d="M-40.3,173c-2-2-5.9-3.6-8.7-3.6h-61.1c-2.8,0-5.1,2.3-5.1,5.1v152.8c0,2.8,2.3,5.1,5.1,5.1H12.1
	c2.8,0,5.1-2.3,5.1-5.1v-91.7c0-2.8-1.6-6.7-3.6-8.7L-40.3,173z M7.1,322.3H-105V179.6h55.9c0.5,0.1,1.3,0.4,1.7,0.7l53.7,53.7
	c0.2,0.4,0.7,1.2,0.7,1.7L7.1,322.3L7.1,322.3z M12.1,169.4h-30.6c-2.8,0-3.5,1.6-1.5,3.6l33.6,33.6c2,2,3.6,1.3,3.6-1.5v-30.6
	C17.3,171.7,15,169.4,12.1,169.4z"/>
</svg>
