<?xml version="1.0" encoding="utf-8"?>
<!-- Generator: Adobe Illustrator 19.0.0, SVG Export Plug-In . SVG Version: 6.00 Build 0)  -->
<svg version="1.1" id="图层_1" xmlns="http://www.w3.org/2000/svg" xmlns:xlink="http://www.w3.org/1999/xlink" x="0px" y="0px"
	 viewBox="-149 151 200 200" style="enable-background:new -149 151 200 200;" xml:space="preserve">
<style type="text/css">
	.st0{fill:#4FC3B9;}
</style>
<path class="st0" d="M-124.5,316.4h151c2.8,0,5.1-2.3,5.1-5.1V190.6c0-2.8-2.3-5.1-5.1-5.1h-151c-2.8,0-5.1,2.3-5.1,5.1v120.8
	C-129.6,314.2-127.3,316.4-124.5,316.4z M-119.5,306.3v-74.7H21.5v74.7H-119.5L-119.5,306.3z M21.5,195.7v26h-140.9v-26H21.5z
	 M-107.8,208.6c0-2.5,2-4.6,4.6-4.6c2.5,0,4.6,2,4.6,4.6c0,2.5-2,4.6-4.6,4.6C-105.8,213.3-107.8,211.2-107.8,208.6L-107.8,208.6z
	 M-89.9,208.6c0-2.5,2-4.6,4.6-4.6c2.5,0,4.6,2,4.6,4.6c0,2.5-2,4.6-4.6,4.6S-89.9,211.2-89.9,208.6L-89.9,208.6z M-71.9,208.6
	c0-2.5,2-4.6,4.6-4.6c2.5,0,4.6,2,4.6,4.6c0,2.5-2,4.6-4.6,4.6S-71.9,211.2-71.9,208.6L-71.9,208.6z M-103.6,253.9h5.8v6.3l-0.2,3.3
	c1.3-1.2,3.2-2.5,5.7-2.5c4.1,0,5.8,2.9,5.8,7.5v11.5h-5.8v-10.8c0-2.5-0.7-3.3-2.1-3.3c-1.3,0-2.1,0.6-3.3,1.6v12.4h-5.8
	L-103.6,253.9L-103.6,253.9z M-80.6,273.1v-7.2h-2.5v-4.3l2.9-0.2l0.7-4.9h4.8v4.9h4.4v4.6h-4.4v7.1c0,2,1,2.9,2.4,2.9
	c0.6,0,1.2-0.2,1.7-0.3l0.9,4.2c-1,0.3-2.3,0.7-4.2,0.7C-78.7,280.4-80.6,277.5-80.6,273.1z M-66.1,273.1v-7.2h-2.5v-4.3l2.9-0.2
	l0.7-4.9h4.8v4.9h4.4v4.6h-4.4v7.1c0,2,1,2.9,2.4,2.9c0.6,0,1.2-0.2,1.7-0.3l0.9,4.2c-1,0.3-2.3,0.7-4.2,0.7
	C-64.1,280.4-66.1,277.5-66.1,273.1z M-51.5,261.4h4.7l0.4,1.8h0.2c1.5-1.3,3.3-2.3,5.2-2.3c4.4,0,7.3,3.7,7.3,9.5
	c0,6.4-3.8,10-7.8,10c-1.5,0-3.1-0.7-4.3-2l0.2,2.9v5.3h-5.8V261.4L-51.5,261.4z M-39.8,270.5c0-3.3-1-4.8-3-4.8
	c-1.1,0-2,0.5-2.9,1.5v7.3c0.9,0.8,1.9,1.1,2.8,1.1C-41.1,275.6-39.8,274.1-39.8,270.5z M-29.3,264.9c0-2,1.5-3.6,3.4-3.6
	s3.4,1.5,3.4,3.6c0,2-1.5,3.6-3.4,3.6S-29.3,266.9-29.3,264.9z M-29.3,276.8c0-2,1.5-3.6,3.4-3.6s3.4,1.6,3.4,3.6
	c0,2-1.5,3.6-3.4,3.6C-27.9,280.4-29.3,278.8-29.3,276.8z M-11.6,253.4h3.7l-7.2,32.4h-3.7L-11.6,253.4z M1.7,253.4h3.7l-7.2,32.4
	h-3.7L1.7,253.4z"/>
</svg>
