<?xml version="1.0" encoding="utf-8"?>
<!-- Generator: Adobe Illustrator 19.0.0, SVG Export Plug-In . SVG Version: 6.00 Build 0)  -->
<svg version="1.1" baseProfile="tiny" id="图层_1"
	 xmlns="http://www.w3.org/2000/svg" xmlns:xlink="http://www.w3.org/1999/xlink" x="0px" y="0px" viewBox="0 0 907.1 652"
	 xml:space="preserve">
<g>
	<path class="upload-sys" fill-rule="evenodd" fill="" d="M795.8,515.1c-12.8,41-33,82.1-60.6,123.1c-42.3,64.3-84.5,96.5-126.5,96.5
		c-16.1,0-39.1-5.3-68.9-15.8c-28.2-10.5-53-15.8-74.3-15.8c-20,0-43.3,5.4-69.9,16.2c-26.6,11.2-48.2,16.7-65,16.7
		c-49.9,0-99.3-42.5-148.2-127.5C134.1,523,110,440.5,110,361c0-74.8,18.5-136.2,55.6-184.1C202.4,129.6,249,106,305.4,106
		c23.6,0,52.7,4.9,87.1,14.8c34.1,9.8,56.8,14.8,67.9,14.8c14.8,0,38.2-5.6,70.4-16.7c33.5-11.2,61.9-16.7,85.2-16.7
		c39.1,0,74,10.7,104.9,32c17.1,11.8,34.1,28.2,51.2,49.2c-25.9,22-44.6,41.4-56.1,58.1c-21.3,30.9-32,64.8-32,101.9
		c0,40.7,11.3,77.3,34,109.8S766.6,506.3,795.8,515.1 M610.7-62.4c0,20-4.8,42.3-14.3,67c-9.8,24.6-25.1,47.3-45.8,67.9
		c-17.7,17.7-35.4,29.5-53.2,35.4c-12.1,3.6-29.2,6.4-51.2,8.4c1-48.9,13.8-91.1,38.4-126.5C508.9-45.3,550-69.6,607.7-83
		c0.3,1,0.7,2.8,1.2,5.4c0.5,2.6,0.9,4.4,1.2,5.4c0,1.3,0.1,3,0.2,4.9C610.6-65.3,610.7-63.7,610.7-62.4 M610.7-62.4L610.7-62.4z"/>
</g>
</svg>
