<?xml version="1.0" encoding="utf-8"?>
<!-- Generator: Adobe Illustrator 19.0.0, SVG Export Plug-In . SVG Version: 6.00 Build 0)  -->
<svg version="1.1" baseProfile="tiny" id="图层_1"
	 xmlns="http://www.w3.org/2000/svg" xmlns:xlink="http://www.w3.org/1999/xlink" x="0px" y="0px" viewBox="0 0 907.1 652"
	 xml:space="preserve">
<g>
	<path class="upload-sys" fill-rule="evenodd" fill="" d="M520,120.1c-28.4,0-55.4,6.1-79.9,17L372.7,20.3C417.1-1.9,467.2-14.4,520-14.4
		c21.1,0,41.7,2,61.7,5.8c-0.3,3.6-0.5,7.3-0.5,11c0,65.6,53.5,119.1,119.1,119.1c25.7,0,49.6-8.2,69.1-22.2
		c45.3,51.9,74.8,118,80.7,190.6L715.2,294C703.9,196.4,620.6,120.1,520,120.1L520,120.1L520,120.1z M700.3,87.8
		c-47.1,0-85.4-38.3-85.4-85.4c0-47,38.4-85.4,85.4-85.4c47.1,0,85.4,38.4,85.4,85.4C785.7,49.4,747.3,87.8,700.3,87.8L700.3,87.8
		L700.3,87.8z M323.6,316.6c0,62.1,29.1,117.6,74.3,153.6l-66.8,117.9c-57.6-40.2-101.9-98.1-124.8-165.8
		c31.4-21.5,52.2-57.6,52.2-98.4c0-42.4-22.4-79.8-56-100.9C223.7,151.4,268.5,89.7,328,47.2L399.1,162
		C353.1,198,323.6,254,323.6,316.6L323.6,316.6L323.6,316.6z M139.4,409.3c-47,0-85.4-38.4-85.4-85.4c0-47,38.4-85.4,85.4-85.4
		c47.1,0,85.4,38.4,85.4,85.4C224.8,371,186.5,409.3,139.4,409.3L139.4,409.3L139.4,409.3z M520,513c101.1,0,184.7-76.9,195.4-175.2
		l134.9,2.1c-5.5,78.9-39,150.4-90.5,204.5c-16.5-8.6-35.2-13.5-55-13.5c-62.5,0-114.1,48.6-118.7,110c-21.4,4.4-43.4,6.7-66.1,6.7
		c-51.8,0-101-12.1-144.7-33.4L442.5,497C466.3,507.3,492.5,513,520,513L520,513L520,513z M704.8,564.6c47,0,85.4,38.4,85.4,85.4
		c0,47-38.4,85.4-85.4,85.4c-47.1,0-85.4-38.4-85.4-85.4C619.4,603,657.8,564.6,704.8,564.6L704.8,564.6L704.8,564.6z"/>
</g>
</svg>
