<?xml version="1.0" encoding="utf-8"?>
<!-- Generator: Adobe Illustrator 19.0.0, SVG Export Plug-In . SVG Version: 6.00 Build 0)  -->
<svg version="1.1" baseProfile="tiny" id="图层_1"
	 xmlns="http://www.w3.org/2000/svg" xmlns:xlink="http://www.w3.org/1999/xlink" x="0px" y="0px" viewBox="0 0 907.1 652"
	 xml:space="preserve">
<g>
	<path fill-rule="evenodd" fill="#272536" d="M402.4,19.2c-28.3,0-51.2,22.9-51.2,51.2c0,28.3,22.9,51.2,51.2,51.2
		s51.2-22.9,51.2-51.2C453.6,42.1,430.7,19.2,402.4,19.2L402.4,19.2z M402.4,96c-14.1,0-25.6-11.5-25.6-25.6
		c0-14.1,11.5-25.6,25.6-25.6c14.1,0,25.6,11.5,25.6,25.6C428,84.5,416.5,96,402.4,96L402.4,96z"/>
	<path fill-rule="evenodd" fill="#272536" d="M709.6,19.2H556c-28.3,0-51.2,22.9-51.2,51.2c0,28.3,22.9,51.2,51.2,51.2h153.6
		c28.3,0,51.2-22.9,51.2-51.2C760.8,42.1,737.9,19.2,709.6,19.2L709.6,19.2z M709.6,96H556c-14.1,0-25.6-11.5-25.6-25.6
		c0-14.1,11.5-25.6,25.6-25.6h153.6c14.1,0,25.6,11.5,25.6,25.6C735.2,84.5,723.7,96,709.6,96L709.6,96z"/>
	<path fill-rule="evenodd" fill="#272536" d="M837.6-32H274.4c-14.1,0-25.6,11.5-25.6,25.6v153.6c0,14.1,11.5,25.6,25.6,25.6h448
		c7.1,0,12.8-5.7,12.8-12.8s-5.7-12.8-12.8-12.8h-448V-6.4h563.2v153.6h-64c-7.1,0-12.8,5.7-12.8,12.8s5.7,12.8,12.8,12.8h64
		c14.1,0,25.6-11.5,25.6-25.6V-6.4C863.2-20.6,851.7-32,837.6-32L837.6-32z"/>
	<path fill-rule="evenodd" fill="#272536" d="M197.6,275.2c-28.3,0-51.2,22.9-51.2,51.2c0,28.3,22.9,51.2,51.2,51.2
		s51.2-22.9,51.2-51.2C248.8,298.1,225.9,275.2,197.6,275.2L197.6,275.2z M197.6,352c-14.1,0-25.6-11.5-25.6-25.6
		c0-14.1,11.5-25.6,25.6-25.6c14.1,0,25.6,11.5,25.6,25.6C223.2,340.5,211.7,352,197.6,352L197.6,352z"/>
	<path fill-rule="evenodd" fill="#272536" d="M504.8,275.2H351.2c-28.3,0-51.2,22.9-51.2,51.2c0,28.3,22.9,51.2,51.2,51.2h153.6
		c28.3,0,51.2-22.9,51.2-51.2C556,298.1,533.1,275.2,504.8,275.2L504.8,275.2z M504.8,352H351.2c-14.1,0-25.6-11.5-25.6-25.6
		c0-14.1,11.5-25.6,25.6-25.6h153.6c14.1,0,25.6,11.5,25.6,25.6C530.4,340.5,518.9,352,504.8,352L504.8,352z"/>
	<path fill-rule="evenodd" fill="#272536" d="M632.8,224H69.6C55.5,224,44,235.4,44,249.6v153.6c0,14.1,11.5,25.6,25.6,25.6h448
		c7.1,0,12.8-5.7,12.8-12.8c0-7.1-5.7-12.8-12.8-12.8h-448V249.6h563.2v153.6h-64c-7.1,0-12.8,5.7-12.8,12.8
		c0,7.1,5.7,12.8,12.8,12.8h64c14.1,0,25.6-11.5,25.6-25.6V249.6C658.4,235.4,646.9,224,632.8,224L632.8,224z"/>
	<path fill-rule="evenodd" fill="#272536" d="M402.4,531.2c-28.3,0-51.2,22.9-51.2,51.2c0,28.3,22.9,51.2,51.2,51.2
		s51.2-22.9,51.2-51.2C453.6,554.1,430.7,531.2,402.4,531.2L402.4,531.2z M402.4,608c-14.1,0-25.6-11.5-25.6-25.6
		c0-14.1,11.5-25.6,25.6-25.6c14.1,0,25.6,11.5,25.6,25.6C428,596.5,416.5,608,402.4,608L402.4,608z"/>
	<path fill-rule="evenodd" fill="#272536" d="M709.6,531.2H556c-28.3,0-51.2,22.9-51.2,51.2c0,28.3,22.9,51.2,51.2,51.2h153.6
		c28.3,0,51.2-22.9,51.2-51.2C760.8,554.1,737.9,531.2,709.6,531.2L709.6,531.2z M709.6,608H556c-14.1,0-25.6-11.5-25.6-25.6
		c0-14.1,11.5-25.6,25.6-25.6h153.6c14.1,0,25.6,11.5,25.6,25.6C735.2,596.5,723.7,608,709.6,608L709.6,608z"/>
	<path fill-rule="evenodd" fill="#272536" d="M837.6,480H274.4c-14.1,0-25.6,11.5-25.6,25.6v153.6c0,14.1,11.5,25.6,25.6,25.6h448
		c7.1,0,12.8-5.7,12.8-12.8c0-7.1-5.7-12.8-12.8-12.8h-448V505.6h563.2v153.6h-64c-7.1,0-12.8,5.7-12.8,12.8
		c0,7.1,5.7,12.8,12.8,12.8h64c14.1,0,25.6-11.5,25.6-25.6V505.6C863.2,491.4,851.7,480,837.6,480L837.6,480z"/>
</g>
</svg>
