<?xml version="1.0" standalone="no"?><!DOCTYPE svg PUBLIC "-//W3C//DTD SVG 1.1//EN" "http://www.w3.org/Graphics/SVG/1.1/DTD/svg11.dtd"><svg class="icon" style="" viewBox="0 0 1065 1024" version="1.1" xmlns="http://www.w3.org/2000/svg" p-id="1848" xmlns:xlink="http://www.w3.org/1999/xlink" width="208.0078125" height="200"><defs><style type="text/css"><![CDATA[

]]></style></defs><path d="M728.866 709.287c-22.666 0.026-45.396-8.861-62.519-25.995l-2.716-2.712 38.841-38.852 2.712 2.712c6.681 6.667 15.133 9.892 23.678 9.913 8.965-0.041 17.511-3.262 24.18-9.913l63.668-63.668c6.659-6.686 9.883-15.195 9.914-23.983-0.030-8.717-3.248-17.206-9.903-23.883l-2.716-2.712c-6.681-6.663-15.173-9.877-23.931-9.914-8.756 0.037-17.254 3.251-23.932 9.914l-26.178 26.184c-10.724 10.725-28.113 10.725-38.845 0-10.724-10.725-10.724-28.113 0-38.833l26.184-26.193c17.26-17.284 40.143-26.030 62.768-26.007 22.625-0.022 45.507 8.723 62.775 26.007l2.712 2.707c17.257 17.236 26.030 40.089 25.992 62.727 0.037 22.618-8.691 45.527-25.999 62.82l-63.668 63.671c-17.364 17.383-40.34 26.007-62.876 26.007h-0.145zM640.423 817.521c-22.666 0.019-45.396-8.857-62.515-26.003l-2.712-2.705c-17.332-17.309-26.041-40.243-26.007-62.86-0.034-22.636 8.754-45.477 26.007-62.685l63.668-63.676c17.257-17.284 40.143-26.036 62.768-26.007 17.744-0.022 35.646 5.349 50.868 16.004 2.511 1.284 4.884 2.973 6.986 5.078l7.638 7.632-38.845 38.841-2.712-2.712c-6.688-6.659-15.173-9.88-23.938-9.913-8.751 0.034-17.243 3.255-23.932 9.913l-63.676 63.68c-6.667 6.681-9.873 15.152-9.907 23.842 0.034 8.82 3.251 17.339 9.907 24.017l2.712 2.712c6.686 6.669 15.133 9.88 23.677 9.91 8.965-0.041 17.511-3.259 24.192-9.91l27.431-27.434c10.724-10.724 28.113-10.724 38.836 0.006 10.724 10.722 10.724 28.108 0 38.834l-27.431 27.434c-17.364 17.38-40.352 26.003-62.883 26.003h-0.133zM247.819 234.587v-17.737c0-6.912 3.683-10.372 11.044-10.372h160.299c6.023 0 9.924 0.781 11.71 2.34 1.786 1.567 2.678 6.249 2.678 14.060 0 11.825-0.617 19.188-1.84 22.086-1.227 2.903-3.967 4.684-8.196 5.358-13.838 2.455-20.754 11.265-20.754 26.435v402.25c0 8.478 5.023 15.173 15.062 20.074 6.47 3.129 10.372 5.914 11.714 8.366 1.336 2.459 2.004 6.697 2.004 12.718v13.058c0 7.138-0.668 11.157-2.004 12.043-1.343 0.892-4.803 1.339-10.375 1.339h-163.313c-6.247 0-9.368-2.452-9.368-7.361 0-16.064 0.555-25.881 1.675-29.452 1.114-3.564 5.015-6.358 11.71-8.366 12.049-3.341 18.071-9.702 18.071-19.072v-397.229c0-9.371-1.118-16.449-3.348-21.248-2.231-4.795-7.143-8.753-14.724-11.882-5.58-2.452-8.984-4.628-10.207-6.525-1.231-1.894-1.841-5.524-1.841-10.878zM513.703 728.061c-0.034-25.497 9.866-51.232 29.299-70.618l58.542-58.55v-36.343h41.831c2.745 0 5.468-0.082 8.168-0.218 10.628-3.824 22.692-15.818 22.692-15.818-12.082-12.083-1.451-41.166 10.632-53.245l29.497-29.504c19.445-19.471 45.224-29.325 70.714-29.299 2.181 0 4.359 0.092 6.534 0.238 2.873-15.535 4.359-32.125 4.359-49.855 0-55.774-14.668-99.443-44.001-131.016-29.345-31.565-68.664-47.351-117.969-47.351h-171.341c-5.807 0-9.538 1.063-11.213 3.177-1.674 2.124-2.508 6.53-2.508 13.217l0.331 15.729c0.218 6.919 3.457 12.049 9.706 15.397 11.822 5.803 17.737 13.5 17.737 23.091v404.256c0 5.137-0.725 8.761-2.176 10.878-1.451 2.124-5.078 4.078-10.873 5.859-6.477 2.004-10.263 4.297-11.379 6.861-1.118 2.567-1.674 9.427-1.674 20.58 0 14.055 4.017 21.082 12.049 21.082h52.769c-1.153-6.137-1.733-12.346-1.731-18.541M601.544 243.625h17.066c24.983 0 37.479 18.743 37.479 56.221v166.988c0 20.531-3.177 35.198-9.534 44.012-6.361 8.813-13.555 13.217-21.588 13.217h-23.424v-280.437z" p-id="1849" fill="#b1becb"></path></svg>