<?xml version="1.0" encoding="UTF-8" standalone="no"?>
<svg xmlns="http://www.w3.org/2000/svg" width="400" height="180">
<path fill="#0000C8" d="M21.394289 0a200 200 0 0 0 0 180L67.712434 180a160 160 0 0 1 0 -180ZM330.228757 0a160 160 0 0 1 0 180L378.605711 180a200 200 0 0 0 0 -180Z" />
<path fill="navy" d="M87.754733 15a135 135 0 0 0 0 150L119.532615 165a119 119 0 0 1 0 -150ZM280.467385 15a110 110 0 0 1 0 150L312.245267 165a135 135 0 0 0 0 -150Z" />
<text x="205" y="141" font-size="150" fill="navy" font-family="Helvetica,Arial,sans-serif" font-weight="bold" text-anchor="middle">kv</text>
</svg>