<?xml version="1.0" encoding="utf-8"?>
<!-- Generator: Adobe Illustrator 21.0.0, SVG Export Plug-In . SVG Version: 6.00 Build 0)  -->
<svg version="1.1" id="图层_1" xmlns="http://www.w3.org/2000/svg" xmlns:xlink="http://www.w3.org/1999/xlink" x="0px" y="0px"
	 viewBox="0 0 200 200" style="enable-background:new 0 0 200 200;" xml:space="preserve">
<g>
	<g>
		<path  d="M62.3,98c-2.1-1.3-4.8-2.2-9-3.1c-6.6-1.3-6.6-1.3-7.7-1.8c-1.8-0.8-2.6-2-2.6-3.5c0-2.5,2.5-4.3,5.9-4.3
			c4.2,0,6.2,1.5,6.9,5L67.6,89c-0.7-3.1-1.4-4.7-2.8-6.5c-3-4.1-8.4-6.2-15.5-6.2c-11,0-17.9,5.3-17.9,13.7c0,4.4,1.9,8.1,5.4,10.5
			c2.1,1.4,3.8,2.1,9,3.2c5.8,1.3,7.2,1.7,8.3,2.2c1.4,0.7,2.3,2.1,2.3,3.8c0,3-2.6,4.9-6.8,4.9c-2.8,0-5.2-0.9-6.5-2.6
			c-0.8-1.1-1.2-2.1-1.4-4L30.2,109c0.4,2.5,0.7,3.8,1.2,5.1c1.2,3.1,3.2,5.4,6,7c3,1.7,7.7,2.7,12.4,2.7c6.5,0,11.4-1.6,14.6-4.6
			c2.6-2.5,3.9-5.9,3.9-10C68.4,104.1,66.4,100.4,62.3,98z M100.7,92.2h-8.1c0.2,1.7,0.3,3.3,0.3,5.8v8.6c0,2.1,0.1,3.9,0.2,5.6
			c-0.9-1.7-1.6-2.9-2.7-4.5l-7.2-10.8c-1.5-2.2-2.3-3.7-2.7-4.7h-8.2c0.2,1.7,0.3,3.4,0.3,5.6v19.9c0,2.8-0.1,4.5-0.3,5.9h8.1
			c-0.2-1.6-0.3-3.3-0.3-5.9v-8.5c0-1.9-0.1-3.9-0.3-5.6c1.1,2,1.7,3.1,2.7,4.7l7,10.6c1.3,2,2.2,3.4,2.8,4.8h8.3
			c-0.2-1.6-0.3-3.3-0.3-5.6V98C100.4,95.5,100.5,93.9,100.7,92.2z M139.6,92.2h-10c-0.2,1.6-0.5,2.8-1.4,5.3l-5.6,16.3l-5.7-16.3
			c-0.9-2.5-1.2-3.7-1.4-5.3h-10c0.2,1.6,0.3,3.6,0.3,5.9v19.7c0,2.6-0.1,4.2-0.3,5.9h7.5c-0.2-1.6-0.3-3.3-0.3-5.9v-8.2
			c0-2-0.2-5.1-0.4-7.5c0.2,0.5,0.2,0.5,0.6,1.9c0.1,0.3,1.2,3.8,1.3,4l3.5,10.1c1,2.9,1.4,4.3,1.6,5.6h6.6c0.2-1.2,0.7-2.9,1.6-5.6
			l3.7-10.4c0.5-1.4,0.9-2.7,1.7-5.7c0,0.6,0,0.6-0.2,2.6c-0.1,1.2-0.2,4-0.2,4.9v8.3c0,2.7-0.1,4.1-0.3,5.9h7.5
			c-0.2-1.5-0.3-3-0.3-5.9V98.1C139.3,95.6,139.4,94,139.6,92.2z M158.2,92.2l-6.8-0.1c-2.4,0-5.3,0.1-7,0c0.2,1.8,0.3,3.5,0.3,5.5
			v20.5c0,2.2-0.1,3.9-0.3,5.6h8.1c-0.2-1.6-0.3-3.5-0.3-5.7v-4.8h6c7.3,0,11.7-4,11.7-10.8C169.8,95.8,165.7,92.2,158.2,92.2z
			 M157.8,106.7h-5.6v-8.1h5.6c2.7,0,4.2,1.4,4.2,4C162,105.2,160.5,106.7,157.8,106.7z"/>
	</g>
</g>
</svg>
