<?xml version="1.0" encoding="UTF-8" standalone="no"?>
<svg width="47px" height="43px" viewBox="0 0 47 43" version="1.1" xmlns="http://www.w3.org/2000/svg" xmlns:xlink="http://www.w3.org/1999/xlink" xmlns:sketch="http://www.bohemiancoding.com/sketch/ns">
    <!-- Generator: Sketch 3.2.2 (9983) - http://www.bohemiancoding.com/sketch -->
    <title></title>
    <desc>Created with Sketch.</desc>
    <defs></defs>
    <g id="Mockups" stroke="none" stroke-width="1" fill="none" fill-rule="evenodd" sketch:type="MSPage">
        <g id="Welcome" sketch:type="MSArtboardGroup" transform="translate(-418.500000, -301.000000)" fill="#29A1E6">
            <path d="M440,322.642857 C440,320.947164 439.400118,319.499448 438.200335,318.299665 C437.000552,317.099882 435.552836,316.5 433.857143,316.5 C432.16145,316.5 430.713734,317.099882 429.513951,318.299665 C428.314168,319.499448 427.714286,320.947164 427.714286,322.642857 C427.714286,324.33855 428.314168,325.786266 429.513951,326.986049 C430.713734,328.185832 432.16145,328.785714 433.857143,328.785714 C435.552836,328.785714 437.000552,328.185832 438.200335,326.986049 C439.400118,325.786266 440,324.33855 440,322.642857 L440,322.642857 Z M458.428571,334.928571 C458.428571,334.096722 458.124631,333.376863 457.516741,332.768973 C456.908851,332.161083 456.188992,331.857143 455.357143,331.857143 C454.525293,331.857143 453.805435,332.161083 453.197545,332.768973 C452.589655,333.376863 452.285714,334.096722 452.285714,334.928571 C452.285714,335.776418 452.585655,336.500276 453.185547,337.100167 C453.785438,337.700059 454.509296,338 455.357143,338 C456.204989,338 456.928847,337.700059 457.528739,337.100167 C458.12863,336.500276 458.428571,335.776418 458.428571,334.928571 L458.428571,334.928571 Z M458.428571,310.357143 C458.428571,309.525293 458.124631,308.805435 457.516741,308.197545 C456.908851,307.589655 456.188992,307.285714 455.357143,307.285714 C454.525293,307.285714 453.805435,307.589655 453.197545,308.197545 C452.589655,308.805435 452.285714,309.525293 452.285714,310.357143 C452.285714,311.204989 452.585655,311.928847 453.185547,312.528739 C453.785438,313.12863 454.509296,313.428571 455.357143,313.428571 C456.204989,313.428571 456.928847,313.12863 457.528739,312.528739 C458.12863,311.928847 458.428571,311.204989 458.428571,310.357143 L458.428571,310.357143 Z M449.214286,324.898438 C449.214286,325.058409 449.158297,325.214378 449.046317,325.36635 C448.934337,325.518323 448.806362,325.602306 448.662388,325.618304 L444.94308,326.194196 C444.767112,326.754095 444.511162,327.361976 444.175223,328.017857 C444.719125,328.785718 445.438984,329.705538 446.334821,330.777344 C446.446801,330.937315 446.50279,331.097283 446.50279,331.257254 C446.50279,331.44922 446.446801,331.60119 446.334821,331.71317 C445.966888,332.193083 445.307017,332.908942 444.35519,333.86077 C443.403362,334.812598 442.775485,335.288504 442.47154,335.288504 C442.295572,335.288504 442.127605,335.232515 441.967634,335.120536 L439.208147,332.960938 C438.616254,333.264882 438.000375,333.512834 437.360491,333.704799 C437.184523,335.432486 437.000559,336.672243 436.808594,337.424107 C436.696614,337.808038 436.456661,338 436.088728,338 L431.625558,338 C431.44959,338 431.289621,337.940012 431.145647,337.820033 C431.001673,337.700055 430.921689,337.560083 430.905692,337.400112 L430.353795,333.728795 C429.809893,333.568824 429.210011,333.320872 428.554129,332.984933 L425.722656,335.120536 C425.610677,335.232515 425.450708,335.288504 425.242746,335.288504 C425.066777,335.288504 424.89881,335.224517 424.738839,335.09654 C422.435256,332.968925 421.283482,331.689176 421.283482,331.257254 C421.283482,331.113281 421.339471,330.96131 421.451451,330.801339 C421.611422,330.57738 421.939358,330.153463 422.435268,329.529576 C422.931178,328.905689 423.307104,328.417784 423.563058,328.065848 C423.195125,327.361976 422.91518,326.706104 422.723214,326.098214 L419.075893,325.522321 C418.915922,325.506324 418.779948,325.430339 418.667969,325.294364 C418.555989,325.158388 418.5,325.002419 418.5,324.826451 L418.5,320.387277 C418.5,320.227306 418.555989,320.071336 418.667969,319.919364 C418.779948,319.767391 418.907923,319.683408 419.051897,319.667411 L422.771205,319.091518 C422.947173,318.531619 423.203123,317.923738 423.539062,317.267857 C422.995161,316.499996 422.275302,315.580176 421.379464,314.508371 C421.267485,314.332402 421.211496,314.172434 421.211496,314.02846 C421.211496,313.836495 421.267485,313.676526 421.379464,313.548549 C421.731401,313.068636 422.387272,312.356776 423.347098,311.412946 C424.306924,310.469117 424.938801,309.99721 425.242746,309.99721 C425.418714,309.99721 425.586681,310.053199 425.746652,310.165179 L428.506138,312.324777 C429.05004,312.036829 429.665919,311.780879 430.353795,311.55692 C430.529763,309.829232 430.713727,308.597474 430.905692,307.861607 C431.017672,307.477677 431.257625,307.285714 431.625558,307.285714 L436.088728,307.285714 C436.264696,307.285714 436.424664,307.345703 436.568638,307.465681 C436.712612,307.585659 436.792597,307.725632 436.808594,307.885603 L437.360491,311.55692 C437.904393,311.716891 438.504275,311.964842 439.160156,312.300781 L441.991629,310.165179 C442.119606,310.053199 442.279575,309.99721 442.47154,309.99721 C442.647508,309.99721 442.815475,310.061197 442.975446,310.189174 C445.279029,312.316789 446.430804,313.596538 446.430804,314.02846 C446.430804,314.172434 446.374815,314.324404 446.262835,314.484375 C446.07087,314.740329 445.734935,315.172244 445.255022,315.780134 C444.775109,316.388024 444.41518,316.86793 444.175223,317.219866 C444.543157,317.987727 444.815103,318.643598 444.991071,319.1875 L448.638393,319.739397 C448.798364,319.771392 448.934337,319.855375 449.046317,319.99135 C449.158297,320.127326 449.214286,320.283295 449.214286,320.459263 L449.214286,324.898438 Z M464.571429,333.248884 L464.571429,336.608259 C464.571429,336.864213 463.379662,337.112164 460.996094,337.352121 C460.804129,337.784042 460.564176,338.199961 460.276228,338.599888 C461.09208,340.407561 461.5,341.511345 461.5,341.911272 C461.5,341.975261 461.468006,342.03125 461.404018,342.079241 C459.452371,343.215035 458.460566,343.782924 458.428571,343.782924 C458.300595,343.782924 457.932667,343.406998 457.324777,342.655134 C456.716887,341.90327 456.300968,341.359377 456.077009,341.023438 C455.757067,341.055432 455.517114,341.071429 455.357143,341.071429 C455.197172,341.071429 454.957219,341.055432 454.637277,341.023438 C454.413317,341.359377 453.997399,341.90327 453.389509,342.655134 C452.781619,343.406998 452.413691,343.782924 452.285714,343.782924 C452.25372,343.782924 451.261915,343.215035 449.310268,342.079241 C449.246279,342.03125 449.214286,341.975261 449.214286,341.911272 C449.214286,341.511345 449.622206,340.407561 450.438058,338.599888 C450.15011,338.199961 449.910157,337.784042 449.718192,337.352121 C447.334623,337.112164 446.142857,336.864213 446.142857,336.608259 L446.142857,333.248884 C446.142857,332.99293 447.334623,332.744979 449.718192,332.505022 C449.926154,332.041106 450.166107,331.625188 450.438058,331.257254 C449.622206,329.449582 449.214286,328.345798 449.214286,327.945871 C449.214286,327.881882 449.246279,327.825893 449.310268,327.777902 C449.374256,327.745908 449.654201,327.585939 450.150112,327.297991 C450.646022,327.010043 451.117929,326.738097 451.565848,326.482143 C452.013767,326.226189 452.25372,326.098214 452.285714,326.098214 C452.413691,326.098214 452.781619,326.470141 453.389509,327.214007 C453.997399,327.957872 454.413317,328.497766 454.637277,328.833705 C454.957219,328.801711 455.197172,328.785714 455.357143,328.785714 C455.517114,328.785714 455.757067,328.801711 456.077009,328.833705 C456.892861,327.697911 457.628717,326.802087 458.284598,326.146205 L458.428571,326.098214 C458.49256,326.098214 459.484365,326.658105 461.404018,327.777902 C461.468006,327.825893 461.5,327.881882 461.5,327.945871 C461.5,328.345798 461.09208,329.449582 460.276228,331.257254 C460.548178,331.625188 460.788131,332.041106 460.996094,332.505022 C463.379662,332.744979 464.571429,332.99293 464.571429,333.248884 L464.571429,333.248884 Z M464.571429,308.677455 L464.571429,312.03683 C464.571429,312.292784 463.379662,312.540735 460.996094,312.780692 C460.804129,313.212614 460.564176,313.628532 460.276228,314.02846 C461.09208,315.836133 461.5,316.939916 461.5,317.339844 C461.5,317.403832 461.468006,317.459821 461.404018,317.507812 C459.452371,318.643607 458.460566,319.211496 458.428571,319.211496 C458.300595,319.211496 457.932667,318.835569 457.324777,318.083705 C456.716887,317.331841 456.300968,316.787948 456.077009,316.452009 C455.757067,316.484003 455.517114,316.5 455.357143,316.5 C455.197172,316.5 454.957219,316.484003 454.637277,316.452009 C454.413317,316.787948 453.997399,317.331841 453.389509,318.083705 C452.781619,318.835569 452.413691,319.211496 452.285714,319.211496 C452.25372,319.211496 451.261915,318.643607 449.310268,317.507812 C449.246279,317.459821 449.214286,317.403832 449.214286,317.339844 C449.214286,316.939916 449.622206,315.836133 450.438058,314.02846 C450.15011,313.628532 449.910157,313.212614 449.718192,312.780692 C447.334623,312.540735 446.142857,312.292784 446.142857,312.03683 L446.142857,308.677455 C446.142857,308.421502 447.334623,308.17355 449.718192,307.933594 C449.926154,307.469678 450.166107,307.053759 450.438058,306.685826 C449.622206,304.878153 449.214286,303.77437 449.214286,303.374442 C449.214286,303.310454 449.246279,303.254465 449.310268,303.206473 C449.374256,303.174479 449.654201,303.01451 450.150112,302.726562 C450.646022,302.438615 451.117929,302.166668 451.565848,301.910714 C452.013767,301.654761 452.25372,301.526786 452.285714,301.526786 C452.413691,301.526786 452.781619,301.898713 453.389509,302.642578 C453.997399,303.386443 454.413317,303.926338 454.637277,304.262277 C454.957219,304.230283 455.197172,304.214286 455.357143,304.214286 C455.517114,304.214286 455.757067,304.230283 456.077009,304.262277 C456.892861,303.126482 457.628717,302.230658 458.284598,301.574777 L458.428571,301.526786 C458.49256,301.526786 459.484365,302.086676 461.404018,303.206473 C461.468006,303.254465 461.5,303.310454 461.5,303.374442 C461.5,303.77437 461.09208,304.878153 460.276228,306.685826 C460.548178,307.053759 460.788131,307.469678 460.996094,307.933594 C463.379662,308.17355 464.571429,308.421502 464.571429,308.677455 L464.571429,308.677455 Z" id="" sketch:type="MSShapeGroup"></path>
        </g>
    </g>
</svg>