<?xml version="1.0" encoding="utf-8"?>
<!-- Generator: Adobe Illustrator 19.0.0, SVG Export Plug-In . SVG Version: 6.00 Build 0)  -->
<svg version="1.1" baseProfile="tiny" id="图层_1"
	 xmlns="http://www.w3.org/2000/svg" xmlns:xlink="http://www.w3.org/1999/xlink" x="0px" y="0px" viewBox="0 0 907.1 652"
	 xml:space="preserve">
<g>
	<path fill-rule="evenodd" fill="#272536" d="M200.8,439.4h-54.2c-12.5,0-22.6-10.1-22.6-22.6V104.5c1.4,0.5,2.9,0.8,4.5,0.8h505.7
		c1.6,0,3.1-0.3,4.5-0.8v41.4c0,7.5,6.1,13.5,13.5,13.5c7.5,0,13.5-6.1,13.5-13.5V55.6c0-27.4-22.3-49.7-49.7-49.7H146.7
		C119.3,6,97,28.2,97,55.6v361.2c0,27.4,22.3,49.7,49.7,49.7h54.2c7.5,0,13.5-6.1,13.5-13.5C214.4,445.5,208.3,439.4,200.8,439.4
		L200.8,439.4z M146.7,33.1h469.5c12.5,0,22.6,10.1,22.6,22.6V79c-1.4-0.5-2.9-0.8-4.5-0.8H128.6c-1.6,0-3.1,0.3-4.5,0.8V55.6
		C124.1,43.2,134.2,33.1,146.7,33.1L146.7,33.1z"/>
	<path fill-rule="evenodd" fill="#272536" d="M760.7,186.6H291.1c-27.4,0-49.7,22.3-49.7,49.7v361.2c0,27.4,22.3,49.7,49.7,49.7
		h469.5c27.4,0,49.7-22.3,49.7-49.7V236.2C810.3,208.8,788.1,186.6,760.7,186.6L760.7,186.6z M291.1,213.7h469.5
		c12.5,0,22.6,10.1,22.6,22.6v23.4c-1.4-0.5-2.9-0.8-4.5-0.8H273.1c-1.6,0-3.1,0.3-4.5,0.8v-23.4
		C268.6,223.8,278.7,213.7,291.1,213.7L291.1,213.7z M760.7,620H291.1c-12.5,0-22.6-10.1-22.6-22.6V285.1c1.4,0.5,2.9,0.8,4.5,0.8
		h505.7c1.6,0,3.1-0.3,4.5-0.8v312.3C783.3,609.9,773.1,620,760.7,620L760.7,620z"/>
</g>
</svg>
