<?xml version="1.0" encoding="utf-8"?>
<!-- Generator: Adobe Illustrator 19.0.0, SVG Export Plug-In . SVG Version: 6.00 Build 0)  -->
<svg version="1.1" baseProfile="tiny" id="图层_1"
	 xmlns="http://www.w3.org/2000/svg" xmlns:xlink="http://www.w3.org/1999/xlink" x="0px" y="0px" viewBox="0 0 907.1 652"
	 xml:space="preserve">
<g>
	<path fill-rule="evenodd" fill="#272536" d="M118.2,408.4c0,2.8-2.3,5.1-5.1,5.1h-41c-2.8,0-5.1-2.3-5.1-5.1V9.1
		C67,6.2,69.3,4,72.1,4h41c2.8,0,5.1,2.3,5.1,5.1V408.4L118.2,408.4z"/>
	<path fill-rule="evenodd" fill="#272536" d="M271.8,408.4c0,2.8-2.3,5.1-5.1,5.1h-92.2c-2.8,0-5.1-2.3-5.1-5.1V9.1
		c0-2.9,2.3-5.1,5.1-5.1h92.2c2.8,0,5.1,2.3,5.1,5.1V408.4L271.8,408.4z"/>
	<path fill-rule="evenodd" fill="#272536" d="M837.9,610.6L751.2,524c-6-6.1-18.9-2.8-28.9,7.3c-10,10-13.3,22.9-7.3,28.9l86.7,86.7
		c6,6,18.9,2.8,28.9-7.3C840.6,629.5,843.9,616.7,837.9,610.6L837.9,610.6z"/>
	<path fill-rule="evenodd" fill="#272536" d="M681.4,214.9c-18.9-6.7-38.9-10.2-59.9-10.2c-14.8,0-29.2,1.5-42.5,5.1
		c-18.4,4.1-35.3,10.8-51.2,20c-20,10.8-36.9,25.6-51.2,43c-27.6,32.8-44,74.8-44,120.8c0,104.4,84.5,188.9,188.9,188.9
		c103.9,0,188.9-84.4,188.9-188.9C810.4,310.1,756.2,239.5,681.4,214.9L681.4,214.9z M621.5,528.8c-74.8,0-135.2-60.4-135.2-135.2
		s60.4-135.2,135.2-135.2s134.7,60.4,134.7,135.2S696.2,528.8,621.5,528.8L621.5,528.8z"/>
	<path fill-rule="evenodd" fill="#272536" d="M681.4,9.1v205.8c-18.9-6.7-38.9-10.2-59.9-10.2c-14.8,0-29.2,1.5-42.5,5.1V9.1
		c0-2.6,2-5.1,5.1-5.1h92.2C679.4,4,681.4,6.5,681.4,9.1L681.4,9.1z"/>
	<path fill-rule="evenodd" fill="#272536" d="M527.8,9.1v220.7c-20,10.8-36.9,25.6-51.2,43V9.1c0-3.1,2-5.1,5.1-5.1h41
		C525.8,4,527.8,6,527.8,9.1L527.8,9.1z"/>
	<path fill-rule="evenodd" fill="#272536" d="M425.4,408.4c0,2.8-2.3,5.1-5.1,5.1h-41c-2.8,0-5.1-2.3-5.1-5.1V9.1
		c0-2.9,2.3-5.1,5.1-5.1h41c2.8,0,5.1,2.3,5.1,5.1V408.4L425.4,408.4z"/>
	<path fill-rule="evenodd" fill="#272536" d="M783.8,9.1v288.3c-12.8-22-30.7-41.5-51.2-56.3V9.1c0-3.1,2-5.1,5.1-5.1h41
		C781.8,4,783.8,6,783.8,9.1L783.8,9.1z"/>
</g>
</svg>
