<?xml version="1.0" encoding="utf-8"?>
<!-- Generator: Adobe Illustrator 19.0.0, SVG Export Plug-In . SVG Version: 6.00 Build 0)  -->
<svg version="1.1" baseProfile="tiny" id="图层_1"
	 xmlns="http://www.w3.org/2000/svg" xmlns:xlink="http://www.w3.org/1999/xlink" x="0px" y="0px" viewBox="0 0 907.1 652"
	 xml:space="preserve">
<g>
	<path fill-rule="evenodd" fill="#272536" d="M471.3,40.7c-7.3-7.3-21.6-13.2-31.8-13.2H215.7c-10.3,0-18.7,8.4-18.7,18.7v559.6
		c0,10.3,8.4,18.7,18.7,18.7h447.7c10.3,0,18.7-8.4,18.7-18.7V270c0-10.3-5.9-24.6-13.2-31.8L471.3,40.7L471.3,40.7z M644.7,587.1
		H234.3V64.8H439c1.7,0.3,4.9,1.6,6.3,2.6l196.8,196.8c1,1.4,2.3,4.6,2.6,6.3L644.7,587.1L644.7,587.1L644.7,587.1z M663.3,27.5
		H551.4c-10.3,0-12.7,5.9-5.5,13.2l122.9,122.9c7.3,7.3,13.2,4.8,13.2-5.5V46.2C682,35.9,673.6,27.5,663.3,27.5L663.3,27.5z"/>
</g>
</svg>
