<?xml version="1.0" encoding="utf-8"?>
<!-- Generator: Adobe Illustrator 20.1.0, SVG Export Plug-In . SVG Version: 6.00 Build 0)  -->
<svg version="1.1" id="Layer_1" xmlns="http://www.w3.org/2000/svg" xmlns:xlink="http://www.w3.org/1999/xlink" x="0px" y="0px"
	 viewBox="0 0 80 80" style="enable-background:new 0 0 80 80;" xml:space="preserve">
<style type="text/css">
	.st0{fill-rule:evenodd;clip-rule:evenodd;fill:none;}
	.st1{fill:#3EBEB0;}
	.st2{fill:#07A5DE;}
	.st3{fill:#0078A0;}
</style>
<rect class="st0" width="80" height="80"/>
<g>
	<g>
		<g>
			<path class="st1" d="M54.5,54.5h11.4c1.2,0,2.1-1,2-2.1c-0.3-4.4-1.5-8.5-3.3-12.1c-0.3-0.7-1.3-0.8-1.7-0.1l-9.2,12.8
				C53.2,53.6,53.7,54.5,54.5,54.5z"/>
			<path class="st1" d="M59.8,34.7c0.4-0.4,0.4-1,0-1.4c-5.1-5.4-12.1-8.8-19.8-8.8c-14.8,0-26.9,12.3-27.9,27.9
				c-0.1,1.2,0.8,2.1,2,2.1h25.5c0.3,0,0.5-0.1,0.7-0.3L59.8,34.7z"/>
		</g>
		<path class="st2" d="M46.3,55.5h-6.4c-0.5,0-0.9-0.4-0.9-0.9v-6.4c0-0.8,0.4-1.6,1.1-2.1l25.5-18.4c0.8-0.6,1.8,0.4,1.2,1.2
			L48.5,54.4C48,55.1,47.2,55.5,46.3,55.5z"/>
	</g>
	<path class="st1" d="M54.5,54.5h11.4c1.2,0,2.1-1,2-2.1c-0.3-4.4-1.5-8.5-3.3-12.1c-0.3-0.7-1.3-0.8-1.7-0.1l-9.2,12.8
		C53.2,53.6,53.7,54.5,54.5,54.5z"/>
	<path class="st3" d="M39.6,54.5c0.3,0,0.5-0.1,0.7-0.3l19.5-19.5c0.4-0.4,0.4-1,0-1.4c-0.3-0.3-0.6-0.6-0.8-0.9L40.1,46
		c-0.7,0.5-1.1,1.3-1.1,2.1v6.3H39.6z"/>
</g>
</svg>
