<?xml version="1.0" standalone="no"?><!DOCTYPE svg PUBLIC "-//W3C//DTD SVG 1.1//EN" "http://www.w3.org/Graphics/SVG/1.1/DTD/svg11.dtd"><svg class="icon" style="" viewBox="0 0 1026 1024" version="1.1" xmlns="http://www.w3.org/2000/svg" p-id="1030" xmlns:xlink="http://www.w3.org/1999/xlink" width="200.390625" height="200"><defs><style type="text/css"><![CDATA[

]]></style></defs><path d="M514.048 0c-282.624 0-512 229.376-512 512s229.376 512 512 512 512-229.376 512-512-229.376-512-512-512z m240.64 487.424h-216.064V271.36c66.56 1.536 131.072 9.728 192.512 23.552 13.824 61.952 22.016 125.952 23.552 192.512z m-216.064 49.152h216.064c-1.536 68.096-10.24 133.632-24.576 196.608-61.44 13.312-125.44 20.992-191.488 22.528v-219.136z m439.296-49.152h-171.52c-1.536-60.928-8.192-120.832-19.968-178.176 61.44 17.92 119.296 41.984 173.056 71.168 10.24 34.304 16.384 70.144 18.432 107.008z m-45.568-177.152c-50.176-23.552-103.424-42.496-159.232-57.344-14.848-55.808-33.792-109.056-57.344-158.72 94.72 45.056 171.008 121.856 216.576 216.064z m-286.72-243.712c29.184 53.248 52.736 111.616 71.168 173.056-57.344-11.776-116.736-18.432-178.176-19.456v-171.008-0.512c36.864 1.536 72.704 7.68 107.008 17.92z m-156.16-18.432c0 0.512 0 0.512 0 0v171.52c-62.976 1.536-123.904 8.704-182.784 20.48 16.896-60.928 39.424-118.272 66.048-171.008 37.376-11.264 76.8-18.944 116.736-20.992z m-183.296 48.64c-21.504 49.152-39.424 101.888-53.248 156.672-55.296 14.848-107.52 33.792-157.184 56.832 44.544-92.672 119.296-167.936 210.432-213.504z m-237.568 283.648c53.248-28.672 110.592-52.736 172.032-70.656-10.752 57.344-17.408 116.736-18.944 177.664h-171.52c2.048-36.864 8.192-72.704 18.432-107.008z m-18.432 156.16h171.52c1.536 62.976 8.192 123.904 19.456 182.272-60.416-16.896-117.248-38.912-169.984-66.048-11.264-36.864-18.944-75.776-20.992-116.224z m48.64 183.296c48.64 21.504 100.864 39.424 154.624 52.736 13.824 54.272 31.232 105.984 52.736 154.624-89.6-44.544-162.816-117.76-207.36-207.36z m390.656 256c-40.448-2.048-79.36-9.216-116.224-20.992-27.136-52.736-49.152-109.568-66.048-169.984 58.368 11.264 119.808 18.432 182.272 19.456v171.52z m0-220.672c-67.584-1.536-133.12-9.728-195.584-23.04-13.824-62.464-21.504-128-23.04-195.584h218.624v218.624z m-218.624-267.776c1.536-66.048 9.216-130.56 22.528-191.488 62.464-14.336 128.512-23.04 196.096-24.576v216.064h-218.624z m267.776 488.448v-171.52c60.928-1.536 120.32-7.68 177.664-18.432-17.92 60.928-41.984 118.784-70.656 172.032-34.304 9.728-70.144 15.872-107.008 17.92z m177.664-45.568c23.04-49.664 41.984-101.888 56.832-157.184 54.784-13.824 107.008-31.744 156.672-53.248-46.08 91.136-121.344 165.888-213.504 210.432z m240.64-277.504c-52.736 27.136-110.08 49.152-171.008 66.048 12.288-58.88 19.456-119.808 20.48-182.784h171.52c-2.048 40.96-9.216 79.872-20.992 116.736z" fill="#fff" p-id="1031"></path></svg>