<?xml version="1.0" encoding="utf-8"?>
<!-- Generator: Adobe Illustrator 21.0.0, SVG Export Plug-In . SVG Version: 6.00 Build 0)  -->
<svg version="1.1" id="图层_1" xmlns="http://www.w3.org/2000/svg" xmlns:xlink="http://www.w3.org/1999/xlink" x="0px" y="0px"
	 viewBox="0 0 200 200" style="enable-background:new 0 0 200 200;" xml:space="preserve">
<style type="text/css">
	.st0{fill:#00B7F7;}
	.st1{fill:#008DF7;}
</style>
<path class="st0" d="M133.3,9.3H66.8c-8.3,0-15.1,6.8-15.1,15.1v151.3c0,8.3,6.8,15.1,15.1,15.1h66.5c8.3,0,15.1-6.8,15.1-15.1V24.4
	C148.5,16.1,141.7,9.3,133.3,9.3z M91,21.4h18.2c1.7,0,3,1.4,3,3c0,1.7-1.4,3-3,3H91c-1.7,0-3-1.3-3-3C88,22.8,89.3,21.4,91,21.4z
	 M100.1,184.8c-5,0-9.1-4.1-9.1-9.1s4.1-9.1,9.1-9.1c5,0,9.1,4.1,9.1,9.1S105.1,184.8,100.1,184.8z M142.4,160.6H57.7v-121h84.7
	V160.6z"/>
<path class="st1" d="M131.2,104.4c0,0.7-0.2,1.3-0.7,1.8c-0.5,0.5-1.1,0.7-1.8,0.7H120c0,4.4-0.9,8.2-2.6,11.3l8.1,8.1
	c0.5,0.5,0.7,1.1,0.7,1.8s-0.2,1.3-0.7,1.8c-0.5,0.5-1.1,0.7-1.8,0.7s-1.3-0.2-1.8-0.7l-7.7-7.7c-0.1,0.1-0.3,0.3-0.6,0.5
	c-0.3,0.2-0.8,0.6-1.6,1.1c-0.8,0.5-1.7,1-2.5,1.4c-0.9,0.4-1.9,0.8-3.2,1.1c-1.3,0.3-2.5,0.5-3.8,0.5V92h-5v34.9
	c-1.3,0-2.6-0.2-3.9-0.5s-2.4-0.8-3.4-1.3c-0.9-0.5-1.8-1-2.6-1.5c-0.8-0.5-1.3-0.9-1.7-1.3l-0.6-0.5l-7.1,8.1
	c-0.5,0.5-1.1,0.8-1.9,0.8c-0.6,0-1.2-0.2-1.7-0.6c-0.5-0.5-0.8-1-0.8-1.7c0-0.7,0.2-1.3,0.6-1.8l7.9-8.8c-1.5-3-2.3-6.5-2.3-10.7
	h-8.7c-0.7,0-1.3-0.2-1.8-0.7c-0.5-0.5-0.7-1.1-0.7-1.8c0-0.7,0.2-1.3,0.7-1.8c0.5-0.5,1.1-0.7,1.8-0.7h8.7V90.5l-6.7-6.7
	c-0.5-0.5-0.7-1.1-0.7-1.8c0-0.7,0.2-1.3,0.7-1.8c0.5-0.5,1.1-0.7,1.8-0.7c0.7,0,1.3,0.2,1.8,0.7l6.7,6.7h32.8l6.7-6.7
	c0.5-0.5,1.1-0.7,1.8-0.7s1.3,0.2,1.8,0.7c0.5,0.5,0.7,1.1,0.7,1.8c0,0.7-0.2,1.3-0.7,1.8l-6.7,6.7v11.4h8.7c0.7,0,1.3,0.2,1.8,0.7
	C130.9,103.2,131.2,103.8,131.2,104.4L131.2,104.4z M112.5,82H87.6c0-3.4,1.2-6.4,3.6-8.8c2.4-2.4,5.4-3.6,8.8-3.6
	c3.4,0,6.4,1.2,8.8,3.6C111.3,75.6,112.5,78.6,112.5,82L112.5,82z"/>
</svg>
