<?xml version="1.0" standalone="no"?><!DOCTYPE svg PUBLIC "-//W3C//DTD SVG 1.1//EN" "http://www.w3.org/Graphics/SVG/1.1/DTD/svg11.dtd"><svg class="icon" style="" viewBox="0 0 1024 1024" version="1.1" xmlns="http://www.w3.org/2000/svg" p-id="2819" xmlns:xlink="http://www.w3.org/1999/xlink" width="200" height="200"><defs><style type="text/css"><![CDATA[

]]></style></defs><path d="M764.933 911.383c-169.219 0-336.951 0-507.784 0 0-8.633-0.232-16.509 0.039-24.366 0.91-25.911 11.253-36.631 37.103-36.884 42.541-0.411 85.083-0.132 127.628-0.145 8.016-0.004 16.03 0 25.661 0 0-33.463 0-64.32 0-98.425-8.493 0-16.398 0-24.305 0-95.53 0-191.065 0.097-286.6-0.043-47.035-0.07-72.053-24.662-72.114-71.666-0.21-164.942-0.188-329.886-0.018-494.829 0.048-46.708 25.115-72.639 71.772-72.695 250.774-0.311 501.55-0.342 752.324 0.03 47.278 0.07 71.265 25.39 71.29 72.681 0.102 164.942 0.106 329.886 0 494.829-0.034 47.409-24.229 71.564-71.749 71.643-94.788 0.16-189.573 0.051-284.36 0.051-8.135 0-16.272 0-27.695 0 0 30.429-0.679 59.306 0.822 88.068 0.197 3.744 11.512 9.739 17.789 9.879 40.283 0.911 80.598 0.46 120.899 0.482C763.633 850.02 772.484 860.656 764.933 911.383zM895.597 622.611c0-149.604 0-297.617 0-447.073-8.855-0.437-16.155-1.113-23.447-1.115-240.358-0.055-480.719 0.211-721.08-0.508-20.271-0.061-24.76 6.124-24.643 25.364 0.797 133.61 0.42 267.23 0.42 400.845 0 7.206 0 14.412 0 22.487C384.906 622.611 639.76 622.611 895.597 622.611zM544.418 688.497c-0.097-17.944-15.21-32.512-33.209-32.011-16.833 0.468-30.934 15.082-30.886 32.006 0.048 16.979 14.215 31.675 30.956 32.104C529.227 721.055 544.514 706.252 544.418 688.497z" p-id="2820" fill="#18a689"></path></svg>