<?xml version="1.0" encoding="utf-8"?>
<!-- Generator: Adobe Illustrator 19.0.0, SVG Export Plug-In . SVG Version: 6.00 Build 0)  -->
<svg version="1.1" id="图层_1" xmlns="http://www.w3.org/2000/svg" xmlns:xlink="http://www.w3.org/1999/xlink" x="0px" y="0px"
	 viewBox="-149 151 200 200" style="enable-background:new -149 151 200 200;" xml:space="preserve">
<style type="text/css">
	.st0{fill:#F57564;}
</style>
<path class="st0" d="M-93.8,198.8h89.6l0.9,0.1c2.2-0.2,4.1-1.2,5.7-2.7c1.6-1.7,2.7-3.9,2.7-6.5v-4.7c0-2.6-1.1-4.9-2.7-6.5l0,0
	c-1.6-1.7-4-2.8-6.6-2.8h-89.6c-2.6,0-4.9,1.1-6.5,2.8c-1.6,1.6-2.7,3.9-2.7,6.5v4.7c0,2.6,1,4.8,2.7,6.5c1.5,1.4,3.4,2.5,5.6,2.7
	L-93.8,198.8L-93.8,198.8z M-89.4,243.1L-89.4,243.1c3.8,0,6.9,3.2,6.9,6.9c0,3.7-3.2,6.9-6.9,6.9c-3.8,0-6.8-3.2-6.8-6.9
	S-93.2,243.1-89.4,243.1L-89.4,243.1z M-89.4,211.8L-89.4,211.8c3.8,0,6.9,3.1,6.9,6.8c0,3.8-3.2,6.9-6.9,6.9
	c-3.8,0-6.8-3.1-6.8-6.9C-96.2,214.9-93.2,211.8-89.4,211.8L-89.4,211.8z M-89.4,180.5L-89.4,180.5c3.8,0,6.9,3.2,6.9,6.9
	c0,3.8-3.2,6.9-6.9,6.9c-3.8,0-6.8-3.1-6.8-6.9C-96.2,183.6-93.2,180.5-89.4,180.5L-89.4,180.5z M-42.1,269.9L-42.1,269.9v18.7
	c3.6,1.1,7,3.2,9.6,5.8c2.7,2.6,4.6,5.7,5.7,9.4h60.1c3.8,0,6.9,3,6.9,6.9c0,3.7-3.1,6.9-6.9,6.9h-59.9c-1.1,3.8-3.2,7.3-5.9,10
	c-4.2,4.3-10,6.9-16.6,6.9c-6.4,0-12.4-2.6-16.5-6.9c-2.8-2.7-4.8-6.1-5.9-10h-59.9c-3.8,0-6.8-3.1-6.8-6.9c0-3.9,3.1-6.9,6.8-6.9
	h60.1c1.1-3.6,3.2-6.9,5.7-9.4c2.7-2.8,6-4.8,9.7-5.8v-18.7h-37.9c-4.8,0-9.2-2-12.3-5.2v-0.1c-3.2-3.1-5.2-7.4-5.2-12.2v-4.8
	c0-4.8,1.9-9.2,5.2-12.3c0.4-0.4,0.7-0.7,1.1-1.1c-0.5-0.3-0.8-0.6-1.1-0.9c-3.2-3.2-5.2-7.5-5.2-12.3v-4.8c0-4.8,1.9-9.2,5.2-12.2
	c0.4-0.5,0.7-0.8,1.1-1c-0.5-0.4-0.8-0.8-1.1-1.1c-3.2-3.2-5.2-7.5-5.2-12.3v-4.7c0-4.8,1.9-9.2,5.2-12.3c3.2-3.2,7.4-5.2,12.3-5.2
	h89.6c4.9,0,9.2,2,12.3,5.2l0,0c3.2,3.2,5.2,7.5,5.2,12.3v4.7c0,4.8-2,9.2-5.2,12.3c-0.3,0.3-0.8,0.7-1.1,1.1c0.4,0.3,0.7,0.6,1.1,1
	l0,0c3.2,3.2,5.2,7.4,5.2,12.2v4.8c0,4.8-2,9.2-5.2,12.3c-0.3,0.3-0.8,0.7-1.1,0.9c0.4,0.4,0.7,0.7,1.1,1.1l0,0
	c3.2,3.2,5.2,7.5,5.2,12.3v4.8c0,4.8-2,9.2-5.2,12.2c-3.2,3.2-7.5,5.3-12.3,5.3H-42.1L-42.1,269.9z M-3.3,207.1L-3.3,207.1h-0.9
	h-89.6h-0.9c-2.3,0.2-4.1,1.1-5.6,2.7c-1.6,1.6-2.7,3.9-2.7,6.5v4.8c0,2.5,1,4.9,2.7,6.5v0.1c1.5,1.4,3.4,2.5,5.6,2.6h0.9h89.6h0.9
	c2.2-0.2,4.1-1.1,5.7-2.7c1.6-1.6,2.7-4,2.7-6.5v-4.8c0-2.5-1.1-4.8-2.7-6.5v-0.1C0.8,208.3-1.2,207.3-3.3,207.1L-3.3,207.1z
	 M-3.3,238.4L-3.3,238.4l-0.9,0.1h-89.6l-0.9-0.1c-2.3,0.2-4.1,1.1-5.6,2.7c-1.6,1.7-2.7,3.9-2.7,6.5v4.8c0,2.6,1,4.9,2.7,6.5
	c1.6,1.7,4,2.8,6.5,2.8h89.6c2.6,0,4.9-1.1,6.6-2.8c1.6-1.6,2.7-3.9,2.7-6.5v-4.8c0-2.6-1.1-4.8-2.7-6.5l0,0
	C0.8,239.7-1.2,238.6-3.3,238.4L-3.3,238.4z M-38.3,300.1L-38.3,300.1c-2.8-2.8-6.4-4.4-10.7-4.4c-4.2,0-8,1.7-10.7,4.4
	c-2.8,2.8-4.5,6.5-4.5,10.8c0,4.2,1.7,8,4.5,10.8c2.8,2.8,6.5,4.4,10.7,4.4c4.3,0,8-1.7,10.7-4.4c2.9-2.8,4.5-6.5,4.5-10.8
	C-33.8,306.7-35.4,303-38.3,300.1L-38.3,300.1z"/>
</svg>
