<?xml version="1.0" standalone="no"?><!DOCTYPE svg PUBLIC "-//W3C//DTD SVG 1.1//EN" "http://www.w3.org/Graphics/SVG/1.1/DTD/svg11.dtd"><svg class="icon" style="" viewBox="0 0 1024 1024" version="1.1" xmlns="http://www.w3.org/2000/svg" p-id="6567" xmlns:xlink="http://www.w3.org/1999/xlink" width="200" height="200"><defs><style type="text/css"><![CDATA[

]]></style></defs><path d="M116.191394 48.613053C116.191394 21.719579 137.964867 0 164.912236 0l701.332211 0c26.947368 0 48.936421 21.719579 48.936421 48.613053l0 0c0 26.785684-21.989053 48.451368-48.936421 48.451368L164.912236 97.064421C137.964867 97.118316 116.191394 75.452632 116.191394 48.613053L116.191394 48.613053zM511.778762 229.160421c-27.055158 0-48.882526 21.827368-48.882526 48.613053l0 697.559579C462.896236 1002.280421 484.723604 1024 511.778762 1024l0 0c26.947368 0 48.828632-21.719579 48.828632-48.666947L560.607394 277.773474C560.607394 250.987789 538.726131 229.160421 511.778762 229.160421L511.778762 229.160421zM477.070552 193.374316C458.045709 212.345263 456.967815 242.041263 474.645288 259.610947l359.585684 357.753263c17.785263 17.731368 47.696842 16.599579 66.613895-2.479158l0 0c19.078737-18.970947 20.264421-48.505263 2.425263-66.182737L543.630552 190.949053C526.006973 173.325474 496.203183 174.349474 477.070552 193.374316L477.070552 193.374316zM546.433078 193.374316C527.300446 174.349474 497.442762 173.325474 479.819183 190.949053l-359.693474 357.807158c-17.623579 17.623579-16.653474 47.319579 2.425263 66.182737l0 0c19.078737 19.078737 48.990316 20.210526 66.613895 2.479158l359.693474-357.753263C566.428025 242.041263 565.511815 212.345263 546.433078 193.374316L546.433078 193.374316z" p-id="6568" fill="#fff"></path></svg>