<?xml version="1.0" encoding="utf-8"?>
<!-- Generator: Adobe Illustrator 19.0.0, SVG Export Plug-In . SVG Version: 6.00 Build 0)  -->
<svg version="1.1" id="图层_1" xmlns="http://www.w3.org/2000/svg" xmlns:xlink="http://www.w3.org/1999/xlink" x="0px" y="0px"
	 viewBox="0 0 200 200" style="enable-background:new 0 0 200 200;" xml:space="preserve">
<style type="text/css">
	.st0{fill:#25A589;}
</style>
<path class="st0" d="M12.6,26.7h43.9l29.3,87.8h95.1v14.6l-109.7,0L41.8,41.4H12.6V26.7L12.6,26.7z M100.3,143.2
	c8.4,0,15.1,6.8,15.1,15.1c0,8.4-6.8,15.1-15.1,15.1c-8.4,0-15.1-6.8-15.1-15.1C85.2,150,92,143.2,100.3,143.2L100.3,143.2z
	 M158.8,143.2c8.4,0,15.1,6.8,15.1,15.1c0,8.4-6.8,15.1-15.1,15.1c-8.4,0-15.1-6.8-15.1-15.1C143.7,150,150.5,143.2,158.8,143.2
	L158.8,143.2z M182,56.3L151.5,56V41.4h36.6L182,56.3L182,56.3z M115,85.2h29.3v14.6H115V85.2L115,85.2z M115,63.3h29.3v14.6H115
	V63.3L115,63.3z M115,41.4h29.3V56H115V41.4L115,41.4z M87.2,85.2h20.5v14.6l-14,0L87.2,85.2L87.2,85.2z M78.9,63.3h28.7V78
	l-22.4-0.6L78.9,63.3L78.9,63.3z M71.1,41.4h36.6V56l-30.3,0.3L71.1,41.4L71.1,41.4z M173.7,78l-22.2-0.4V63.3h29L173.7,78L173.7,78
	z M165.4,100l-13.9-0.1V85.2H172L165.4,100L165.4,100z"/>
</svg>
