<?xml version="1.0" encoding="utf-8"?>
<!-- Generator: Adobe Illustrator 19.0.0, SVG Export Plug-In . SVG Version: 6.00 Build 0)  -->
<svg version="1.1" baseProfile="tiny" id="图层_1"
	 xmlns="http://www.w3.org/2000/svg" xmlns:xlink="http://www.w3.org/1999/xlink" x="0px" y="0px" viewBox="0 0 907.1 652"
	 xml:space="preserve">
<g>
	<path class="upload-sys" fill-rule="evenodd" fill="" d="M197.1,72.6h119.2l-52.1,52l157.2,157v12.6h-12.6l-157.2-157l-54.6,54.5L197.1,72.6
		L197.1,72.6 M197.1,72.6L197.1,72.6z"/>
	<path class="upload-sys" fill-rule="evenodd" fill="" d="M592.7,72.6h115.6v115.4l-52.8-52.7l-159,158.8h-12.6v-12.6l159-158.8L592.7,72.6
		L592.7,72.6 M592.7,72.6L592.7,72.6z"/>
	<path class="upload-sys" fill-rule="evenodd" fill="" d="M483.9,356.5h12.6l157.2,157l54.6-54.5V578H589.1l52-52l-157.2-157V356.5 M483.9,356.5
		L483.9,356.5z"/>
	<path class="upload-sys" fill-rule="evenodd" fill="" d="M408.9,356.5h12.6v12.6l-159,158.8l50.2,50.2H197.1V462.6l52.8,52.7L408.9,356.5
		L408.9,356.5 M408.9,356.5L408.9,356.5z"/>
	<path class="upload-sys" fill-rule="evenodd" fill="" d="M197.1,223.2l54.6-54.5l125.6,125.4H197.1V223.2L197.1,223.2 M197.1,223.2L197.1,223.2
		z"/>
	<path class="upload-sys" fill-rule="evenodd" fill="" d="M377.3,356.5L249.9,483.8l-52.8-52.7v-74.6H377.3 M377.3,356.5L377.3,356.5z"/>
	<path class="upload-sys" fill-rule="evenodd" fill="" d="M93,327.2l81.8-81.6v70.9h224.8l8.9,8.9l-8.9,8.9H174.8v74.5L93,327.2L93,327.2
		 M93,327.2L93,327.2z"/>
	<path class="upload-sys" fill-rule="evenodd" fill="" d="M528.1,294.1l127.4-127.2l52.8,52.7v74.5H528.1 M528.1,294.1L528.1,294.1z"/>
	<path class="upload-sys" fill-rule="evenodd" fill="" d="M708.3,427.5L653.8,482L528.1,356.5h180.2L708.3,427.5L708.3,427.5 M708.3,427.5
		L708.3,427.5z"/>
	<path class="upload-sys" fill-rule="evenodd" fill="" d="M496.9,325.3l8.9-8.9h224.9v-74.5l81.7,81.6l-81.7,81.6v-70.9H505.8L496.9,325.3
		L496.9,325.3 M496.9,325.3L496.9,325.3z"/>
	<path class="upload-sys" fill-rule="evenodd" fill="" d="M483.9,400.6l125.6,125.5l-52,52h-73.6L483.9,400.6L483.9,400.6 M483.9,400.6
		L483.9,400.6z"/>
	<path class="upload-sys" fill-rule="evenodd" fill="" d="M443.8,378.3l8.9-8.9l8.9,8.9v222h73.6l-84.3,84.2l-84.3-84.2h77.2V378.3 M443.8,378.3
		L443.8,378.3z"/>
	<path class="upload-sys" fill-rule="evenodd" fill="" d="M294,527.9l127.4-127.3V578h-77.2L294,527.9L294,527.9 M294,527.9L294,527.9z"/>
	<path class="upload-sys" fill-rule="evenodd" fill="" d="M483.9,250.9l125.6-125.4l-52-52h-73.6L483.9,250.9L483.9,250.9 M483.9,250.9
		L483.9,250.9z"/>
	<path class="upload-sys" fill-rule="evenodd" fill="" d="M443.8,273.1l8.9,8.9l8.9-8.9v-222h73.6L450.9-33l-84.3,84.2h77.2V273.1 M443.8,273.1
		L443.8,273.1z"/>
	<path class="upload-sys" fill-rule="evenodd" fill="" d="M294,123.6l127.4,127.2V73.5h-77.2L294,123.6L294,123.6 M294,123.6L294,123.6z"/>
</g>
</svg>
