<?xml version="1.0" encoding="utf-8"?>
<!-- Generator: Adobe Illustrator 19.0.0, SVG Export Plug-In . SVG Version: 6.00 Build 0)  -->
<svg version="1.1" id="图层_1" xmlns="http://www.w3.org/2000/svg" xmlns:xlink="http://www.w3.org/1999/xlink" x="0px" y="0px"
	 viewBox="-149 151 200 200" style="enable-background:new -149 151 200 200;" xml:space="preserve">
<style type="text/css">
	.st0{fill:#DCDCDC;}
</style>
<path class="st0" d="M-60.5,272.3h13.2v-9.1h-13.2L-60.5,272.3z M-10.3,263.3h-13.3v9.1h13.3V263.3z M-136.3,243v73.9
	c0,0,0,6.1,6.6,7.1h8.8v-87.6h-8.8C-129.7,236.3-136.5,236.5-136.3,243z M-28.8,252.2H-42v6.7h13.2V252.2z M-39.6,180
	c0,0-2.6-3.8-7-1.3l-88.9,47.1l107-31.8L-39.6,180z M25.8,226.2L9.3,199.8c0,0-1.9-4-6.8-3.1L-126.7,230L25.8,226.2z M31.3,236.1
	h-141.5v88H30.1c7.4-0.9,8.2-7.5,8.2-7.5V244C37.7,236.3,31.3,236.1,31.3,236.1z M-69.5,247.8h68.3v4.5h-22.4v6.7h18.4v20h-5.1v-2.3
	h-50.2v2.3h-5.1v-20h18.3v-6.7h-22.2V247.8z M-5,282v4.5h-60.6V282H-5z M-72,309.3c7.9-3.6,14.7-7.4,20.5-11.4l4,4.4
	c-7.1,4.3-14.2,8.3-21.4,12.1C-69.7,312.9-70.7,311.3-72,309.3z M-3.6,314.3c-7.7-4.4-14.8-8.3-21.3-11.6l3.1-4.5
	c6.9,3.3,14.1,6.8,21.7,10.7L-3.6,314.3z M0.3,296.3h-32.1v9.5c0,5.7-2.9,8.5-8.6,8.6c-2.6,0-5.8,0-9.6-0.1
	c-0.2-1.6-0.5-3.5-0.9-5.7c3.7,0.3,6.7,0.5,8.9,0.5c3.1,0,4.6-1.5,4.6-4.5v-8.3h-33.4v-4.5H0.3V296.3z M-28.8,263.3H-42v9.1h13.2
	V263.3z M-60.5,272.3h13.2v-9.1h-13.2L-60.5,272.3z M-10.3,263.3h-13.3v9.1h13.3V263.3z M-136.3,243v73.9c0,0,0,6.1,6.6,7.1h8.8
	v-87.6h-8.8C-129.7,236.3-136.5,236.5-136.3,243z M-28.8,252.2H-42v6.7h13.2V252.2z M-39.6,180c0,0-2.6-3.8-7-1.3l-88.9,47.1
	l107-31.8L-39.6,180z M25.8,226.2L9.3,199.8c0,0-1.9-4-6.8-3.1L-126.7,230L25.8,226.2z M31.3,236.1h-141.5v88H30.1
	c7.4-0.9,8.2-7.5,8.2-7.5V244C37.7,236.3,31.3,236.1,31.3,236.1z M-69.5,247.8h68.3v4.5h-22.4v6.7h18.4v20h-5.1v-2.3h-50.2v2.3h-5.1
	v-20h18.3v-6.7h-22.2V247.8z M-5,282v4.5h-60.6V282H-5z M-72,309.3c7.9-3.6,14.7-7.4,20.5-11.4l4,4.4c-7.1,4.3-14.2,8.3-21.4,12.1
	C-69.7,312.9-70.7,311.3-72,309.3z M-3.6,314.3c-7.7-4.4-14.8-8.3-21.3-11.6l3.1-4.5c6.9,3.3,14.1,6.8,21.7,10.7L-3.6,314.3z
	 M0.3,296.3h-32.1v9.5c0,5.7-2.9,8.5-8.6,8.6c-2.6,0-5.8,0-9.6-0.1c-0.2-1.6-0.5-3.5-0.9-5.7c3.7,0.3,6.7,0.5,8.9,0.5
	c3.1,0,4.6-1.5,4.6-4.5v-8.3h-33.4v-4.5H0.3V296.3z M-28.8,263.3H-42v9.1h13.2V263.3z"/>
</svg>
