<?xml version="1.0" standalone="no"?><!DOCTYPE svg PUBLIC "-//W3C//DTD SVG 1.1//EN" "http://www.w3.org/Graphics/SVG/1.1/DTD/svg11.dtd"><svg width="128" height="128" viewBox="0 0 128 128" version="1.1" xmlns="http://www.w3.org/2000/svg" xmlns:xlink="http://www.w3.org/1999/xlink"><defs><style type="text/css"><![CDATA[
@font-face { font-family: ifont; src: url("//at.alicdn.com/t/font_1442373896_4754455.eot?#iefix") format("embedded-opentype"), url("//at.alicdn.com/t/font_1442373896_4754455.woff") format("woff"), url("//at.alicdn.com/t/font_1442373896_4754455.ttf") format("truetype"), url("//at.alicdn.com/t/font_1442373896_4754455.svg#ifont") format("svg"); }

]]></style></defs><g class="transform-group"><g transform="scale(0.125, 0.125)"><path d="M512.002047 66.179258c-245.479901 0-444.473047 198.983937-444.473047 444.450535 0 245.456365 198.993147 444.450535 444.473047 444.450535 245.470691 0 444.468954-198.998263 444.468954-444.450535C956.471001 265.163195 757.472737 66.179258 512.002047 66.179258L512.002047 66.179258zM720.918193 489.466798 533.170159 489.466798 533.170159 301.726949c57.731866 1.396813 113.688295 8.515954 167.067017 20.658506 12.145621 53.381791 19.284205 109.340267 20.681018 167.085436L720.918193 489.466798 720.918193 489.466798zM533.170159 531.795858l187.748035 0c-1.429559 58.965973-8.819876 116.071575-21.443381 170.467463-53.148477 11.441587-108.844987 18.154475-166.304653 19.476587L533.170159 531.795858 533.170159 531.795858 533.170159 531.795858zM914.584008 489.466798 765.736958 489.466798c-1.233084-53.098335-7.119141-104.784508-17.145495-154.505933 53.360302 15.640212 103.700827 36.411281 150.141532 61.563124 8.750291 29.702486 14.18814 60.824297 15.851013 92.946902L914.584008 489.466798 914.584008 489.466798zM875.076202 335.279113c-43.469024-20.252253-89.64367-36.999682-137.972375-49.757241-12.758582-48.319495-29.491685-94.498234-49.743938-137.953955C769.133312 187.137121 835.502905 253.511831 875.076202 335.279113L875.076202 335.279113 875.076202 335.279113zM626.097618 123.901915c25.15696 46.440705 45.925982 96.782254 61.576427 150.132322-49.720402-10.020214-101.402481-15.892969-154.50491-17.126053L533.169135 108.509343c0-0.144286-0.005117-0.289596-0.00921-0.433882C565.272297 109.73731 596.400249 115.155716 626.097618 123.901915L626.097618 123.901915 626.097618 123.901915zM490.844168 108.075461c0 0.144286-0.00921 0.289596-0.00921 0.433882l0 148.398842c-54.555523 1.264806-107.614973 7.432273-158.586878 17.962094 14.640442-52.705386 34.037211-102.481046 57.507762-148.468426C421.890726 116.189256 455.774441 109.891829 490.844168 108.075461L490.844168 108.075461 490.844168 108.075461 490.844168 108.075461zM331.733357 149.98292c-18.830881 42.872436-34.410718 88.364537-46.328142 135.935995-47.786353 12.706393-93.456508 29.313629-136.473231 49.355081C187.706079 255.156284 252.212232 189.803857 331.733357 149.98292L331.733357 149.98292 331.733357 149.98292zM125.270075 396.519896c46.179762-25.007557 96.221482-45.688575 149.249209-61.301158-9.497305 49.640584-15.07023 101.239775-16.242939 154.253176L109.428272 489.471914c1.663896-32.127721 7.091512-63.244416 15.841803-92.946902L125.270075 396.519896 125.270075 396.519896zM109.428272 531.795858 258.276345 531.795858c1.200338 54.461379 7.049556 107.433848 17.032932 158.321842-52.368718-14.603603-101.831246-33.911344-147.553591-57.241702C117.54309 600.745207 111.24157 566.861492 109.428272 531.795858L109.428272 531.795858 109.428272 531.795858zM151.352103 690.889273c42.427298 18.639522 87.401606 34.117029 134.435829 45.982264 11.871375 47.019897 27.315112 91.994204 45.945425 134.403083C253.842359 832.270281 190.359512 768.775154 151.352103 690.889273L151.352103 690.889273 151.352103 690.889273zM490.834958 913.189242c-35.06461-1.817392-68.948325-8.115841-101.084233-18.327414-23.330358-45.720298-42.639123-95.184873-57.246819-147.544381 50.89311 9.979282 103.864556 15.818267 158.331052 17.023722L490.834958 913.189242 490.834958 913.189242 490.834958 913.189242zM490.834958 721.740932c-58.69889-1.354857-115.557876-8.324596-169.739892-20.22974-11.897981-54.16769-18.868743-111.024629-20.227694-169.72045l189.962469 0 0 189.945073L490.834958 721.740932 490.834958 721.740932zM300.871465 489.466798c1.327228-57.46069 8.049327-113.156176 19.495006-166.301584 54.395888-12.618389 111.502513-20.007683 170.46337-21.443381l0 187.743942L300.867372 489.465774 300.871465 489.465774 300.871465 489.466798 300.871465 489.466798zM533.170159 913.189242 533.170159 764.346285c53.004191-1.177825 104.606453-6.719028 154.242943-16.21531-15.611559 53.018517-36.297694 103.052051-61.314461 149.225673-29.692253 8.750291-60.810994 14.169721-92.928482 15.8285L533.170159 913.189242 533.170159 913.189242 533.170159 913.189242zM687.360913 873.694739c20.041452-43.007513 36.630269-88.668459 49.337685-136.444579 47.589878-11.921517 93.081978-27.52489 135.968741-46.364981-39.83117 79.520101-105.178481 144.035464-185.305403 182.805466L687.361937 873.694739 687.360913 873.694739zM896.257617 632.871905c-45.99659 23.465434-95.768157 42.862203-148.482753 57.498552 10.533914-50.967812 16.696264-104.023168 17.966187-158.578692L914.584008 531.791765C912.772756 566.857399 906.470213 600.735997 896.257617 632.871905L896.257617 632.871905 896.257617 632.871905zM896.257617 632.871905" fill="#56abe4"></path></g></g></svg>