<?xml version="1.0" encoding="utf-8"?>
<!-- Generator: Adobe Illustrator 20.1.0, SVG Export Plug-In . SVG Version: 6.00 Build 0)  -->
<svg version="1.1" id="Layer_1" xmlns="http://www.w3.org/2000/svg" xmlns:xlink="http://www.w3.org/1999/xlink" x="0px" y="0px"
	 viewBox="0 0 80 80" style="enable-background:new 0 0 80 80;" xml:space="preserve">
<style type="text/css">
	.st0{fill:#3EBEB0;}
	.st1{fill:#07A5DE;}
	.st2{fill:#0078A0;}
	.st3{fill-rule:evenodd;clip-rule:evenodd;fill:none;}
</style>
<g>
	<path class="st0" d="M55.7,56.9L40.2,54c-0.1,0-0.2,0-0.4,0l-15.5,2.8c-0.7,0.1-1.3-0.5-1.2-1.2L26,40.2c0-0.1,0-0.2,0-0.4
		l-2.8-15.5c-0.1-0.7,0.5-1.3,1.2-1.2L39.8,26c0.1,0,0.2,0,0.4,0l15.5-2.8c0.7-0.1,1.3,0.5,1.2,1.2L54,39.8c0,0.1,0,0.2,0,0.4
		l2.8,15.5C57,56.4,56.4,57,55.7,56.9z"/>
	<circle class="st1" cx="26" cy="40" r="4"/>
	<circle class="st1" cx="40" cy="26" r="4"/>
	<circle class="st1" cx="54" cy="40" r="4"/>
	<circle class="st1" cx="40" cy="54" r="4"/>
	<ellipse transform="matrix(0.7071 -0.7071 0.7071 0.7071 0.5736 47.1005)" class="st1" cx="57.1" cy="22.9" rx="4" ry="4"/>
	<ellipse transform="matrix(0.7071 -0.7071 0.7071 0.7071 -23.669 57.1421)" class="st1" cx="57.1" cy="57.1" rx="4" ry="4"/>
	<ellipse transform="matrix(0.7071 -0.7071 0.7071 0.7071 -9.468 22.8579)" class="st1" cx="22.9" cy="22.9" rx="4" ry="4"/>
	<ellipse transform="matrix(0.7071 -0.7071 0.7071 0.7071 -33.7107 32.8995)" class="st1" cx="22.9" cy="57.1" rx="4" ry="4"/>
	<g>
		<circle class="st2" cx="40" cy="40" r="4"/>
		<path class="st2" d="M26,36c-0.2,0-0.5,0-0.7,0.1l0.7,3.7c0,0.1,0,0.2,0,0.4l-0.7,3.7c0.2,0,0.5,0.1,0.7,0.1c2.2,0,4-1.8,4-4
			S28.2,36,26,36z"/>
		<path class="st2" d="M44,26c0-0.2,0-0.5-0.1-0.7L40.2,26c-0.1,0-0.2,0-0.4,0l-3.7-0.7c0,0.2-0.1,0.5-0.1,0.7c0,2.2,1.8,4,4,4
			C42.2,30,44,28.2,44,26z"/>
		<path class="st2" d="M54,40.2c0-0.1,0-0.2,0-0.4l0.7-3.7C54.5,36,54.2,36,54,36c-2.2,0-4,1.8-4,4s1.8,4,4,4c0.2,0,0.5,0,0.7-0.1
			L54,40.2z"/>
		<path class="st2" d="M55.7,23.1l-2.5,0.5c0.1,0.8,0.5,1.5,1.1,2.1c0.6,0.6,1.3,1,2.1,1.1l0.5-2.5C57,23.6,56.4,23,55.7,23.1z"/>
		<path class="st2" d="M53.2,56.4l2.5,0.5c0.7,0.1,1.3-0.5,1.2-1.2l-0.5-2.5c-0.8,0.1-1.5,0.5-2.1,1.1
			C53.7,54.9,53.4,55.6,53.2,56.4z"/>
		<path class="st2" d="M24.3,23.1c-0.7-0.1-1.3,0.5-1.2,1.2l0.5,2.5c0.8-0.1,1.5-0.5,2.1-1.1c0.6-0.6,1-1.3,1.1-2.1L24.3,23.1z"/>
		<path class="st2" d="M25.7,54.3c-0.6-0.6-1.3-1-2.1-1.1l-0.5,2.5c-0.1,0.7,0.5,1.3,1.2,1.2l2.5-0.5C26.6,55.6,26.3,54.9,25.7,54.3
			z"/>
		<path class="st2" d="M40.2,54l3.7,0.7c0-0.2,0.1-0.5,0.1-0.7c0-2.2-1.8-4-4-4c-2.2,0-4,1.8-4,4c0,0.2,0,0.5,0.1,0.7l3.7-0.7
			C39.9,54,40.1,54,40.2,54z"/>
	</g>
</g>
<rect class="st3" width="80" height="80"/>
</svg>
