<?xml version="1.0" standalone="no"?><!DOCTYPE svg PUBLIC "-//W3C//DTD SVG 1.1//EN" "http://www.w3.org/Graphics/SVG/1.1/DTD/svg11.dtd"><svg class="icon" style="" viewBox="0 0 1024 1024" version="1.1" xmlns="http://www.w3.org/2000/svg" p-id="2664" xmlns:xlink="http://www.w3.org/1999/xlink" width="200" height="200"><defs><style type="text/css"><![CDATA[

]]></style></defs><path d="M509.974877 63.046918c-91.267657 0-176.172395 27.236318-247.035326 74.020854 3.304256-1.040702 7.627724-0.971118 12.967336 0.210801 36.058241 3.829212 68.378343 10.461259 96.869235 19.944238 9.481955 1.914606 15.180747 5.697769 17.09433 11.396561 1.86958 5.697769-0.979304 12.375865-8.547677 19.943215-5.697769 5.697769-9.525957 12.375865-11.396561 19.944238l0 88.321558c17.095353-26.576285 30.360472-40.822754 39.887452-42.736337 17.09433 5.697769 36.058241 19.943215 56.981782 42.736337l0-31.339776c0-7.568373-0.979304-22.793122-2.848884-45.585221l0-37.038568c-3.828188-20.878516 2.848884-29.42517 19.944238-25.642007 37.972846 9.525957 67.399039 19.943215 88.321558 31.339776l2.847861 0 2.848884 2.848884 136.756687 0c17.095353-22.793122 30.360472-35.123962 39.887452-37.038568 22.793122 3.829212 53.153594 23.772426 91.170442 59.830667 13.266142 13.310144 11.396561 24.706705-5.697769 34.18866-7.612375 3.828188-12.375865 9.525957-14.245446 17.09433l0 125.360126c0 47.499827 2.847861 97.848539 8.546653 151.002133 1.86958 19.008936-5.698792 31.339776-22.793122 37.038568-19.008936 9.526981-38.95215 14.245446-59.83169 14.245446-20.923542 1.913583-30.404474-7.568373-28.489868-28.491914L723.212446 214.204593 572.213383 214.204593c-3.829212 5.697769-5.698792 12.375865-5.698792 19.943215l0 324.797387c0 19.007913-6.677073 30.404474-19.943215 34.18866-17.095353 7.611352-35.168987 12.374842-54.132898 14.244422-20.922519 1.914606-31.339776-7.567349-31.339776-28.490891 3.783163-28.490891 5.697769-65.529459 5.697769-111.115704L364.228445 467.771683c-1.914606 26.621311-5.697769 51.284013-11.396561 74.077136 51.284013 15.22475 88.321558 43.715641 111.11468 85.472674 15.180747 41.801035 7.568373 72.206532-22.793122 91.170442-43.715641 17.09433-69.357648 0.979304-76.92602-48.435129 0-26.576285-7.612375-56.002478-22.793122-88.321558-26.621311 83.603093-82.623789 151.002133-168.096463 202.285123-9.526981 5.698792-15.22475 6.633071-17.09433 2.848884-1.914606-1.913583 0-7.612375 5.697769-17.095353 62.679551-74.076112 95.889931-174.729533 99.718119-302.004265l-37.037545 0c-13.311167 0-27.556613 1.914606-42.736337 5.697769-5.697769 0-10.461259-0.934279-14.245446-2.848884 0-1.86958-1.914606-3.783163-5.697769-5.697769-3.829212-7.567349-5.697769-12.33084-5.697769-14.245446-1.914606-5.697769-0.980327-8.547677 2.848884-8.547677 26.576285 3.829212 52.218292 5.697769 76.92602 5.697769l28.490891 0 0-122.510218-37.038568 0c-20.922519 0-35.167964 0.979304-42.736337 2.848884-7.612375 3.829212-12.375865 2.848884-14.245446-2.848884 0-1.86958-1.914606-5.697769-5.697769-11.396561-1.913583-3.784186-3.828188-6.633071-5.697769-8.547677 0-5.697769 1.86958-7.567349 5.697769-5.697769l37.038568 0c18.96391 1.913583 31.339776 2.848884 37.037545 2.848884l25.642007 0c-1.914606-47.455825-4.76349-94.954629-8.547677-142.455479-1.853208-9.18008-1.237177-15.692401 1.823532-19.547195C139.02638 221.305315 61.021795 357.541139 61.021795 512c0 247.950162 201.00292 448.953082 448.953082 448.953082 133.037992 0 252.556063-57.871035 334.766436-149.807934-20.587897 8.503675-44.017516 12.765745-70.242807 12.765745l-85.472674 0c-60.810994 3.783163-89.301885-24.707728-85.473697-85.473697l0-54.132898c-45.585221 53.153594-132.037199 99.718119-259.267928 139.605571-11.396561 5.697769-19.008936 4.718465-22.793122-2.848884 0-5.698792 4.718465-11.396561 14.245446-17.095353 108.265796-56.981782 178.51372-116.812449 210.832799-179.492 34.18866-58.851363 50.304709-153.85204 48.435129-284.909935 0-17.09433-1.914606-44.605917-5.698792-82.623789-5.697769-18.96391 2.848884-26.576285 25.642007-22.793122 24.662703 1.914606 54.132898 7.612375 88.321558 17.09433 18.964934 9.526981 20.878516 20.923542 5.698792 34.18866-11.396561 7.612375-17.095353 19.008936-17.095353 34.189683 0 72.206532-3.828188 133.906779-11.396561 185.190793 3.784186 1.914606 9.481955 4.76349 17.095353 8.547677 5.697769 1.913583 9.481955 3.829212 11.396561 5.697769 13.266142 7.613398 14.245446 18.074657 2.848884 31.339776-5.698792 1.913583-8.547677 8.547677-8.547677 19.944238l0 133.906779c-1.913583 19.008936 6.633071 27.511587 25.642007 25.642007l19.943215 0c20.878516 7.568373 41.757033-25.642007 62.680575-99.719142 3.783163-17.09433 8.546653-24.662703 14.245446-22.793122 9.481955 1.914606 12.33084 9.526981 8.546653 22.793122-1.914606 51.284013 4.718465 83.604116 19.943215 96.869235 16.893762 13.109576 25.424042 26.263154 25.623587 39.417755 49.844222-72.323189 79.033008-159.981644 79.033008-254.460436C958.927959 264.049838 757.925039 63.046918 509.974877 63.046918zM415.512459 396.546501c9.481955 1.914606 26.576285 14.245446 51.284013 37.038568l0-108.265796-96.869235 0 0 25.642007c0 34.18866-0.979304 66.508763-2.848884 96.869235l5.697769 0C389.870452 417.470043 404.116921 400.37469 415.512459 396.546501z" p-id="2665" fill="#18a689"></path></svg>