<?xml version="1.0" standalone="no"?><!DOCTYPE svg PUBLIC "-//W3C//DTD SVG 1.1//EN" "http://www.w3.org/Graphics/SVG/1.1/DTD/svg11.dtd"><svg t="1480559239784" class="icon" style="" viewBox="0 0 1024 1024" version="1.1" xmlns="http://www.w3.org/2000/svg" p-id="2442" xmlns:xlink="http://www.w3.org/1999/xlink" width="200" height="200"><defs><style type="text/css"></style></defs><path d="M943.35989 865.218694 765.136789 687.041642c48.442292-64.658625 77.141938-144.95644 77.141938-231.94463 0-213.891462-173.429935-387.270231-387.269207-387.270231-213.892485 0-387.263068 173.379793-387.263068 387.270231 0 213.840296 173.371606 387.266138 387.263068 387.266138 86.961584 0 167.239955-28.682249 231.889371-77.098959l178.234357 178.179099c17.9887 17.992793 49.974182 14.978133 71.582315-6.643304C958.33086 915.191852 961.352683 883.211487 943.35989 865.218694zM455.008496 731.718167c-152.516626 0-276.617062-124.099413-276.617062-276.621155 0-152.519696 124.100436-276.620132 276.617062-276.620132 152.519696 0 276.620132 124.100436 276.620132 276.620132C731.629651 607.618754 607.528192 731.718167 455.008496 731.718167z" p-id="2443" fill="#b7b9c5"></path></svg>