<?xml version="1.0" encoding="utf-8"?>
<!-- Generator: Adobe Illustrator 19.0.0, SVG Export Plug-In . SVG Version: 6.00 Build 0)  -->
<svg version="1.1" id="图层_1" xmlns="http://www.w3.org/2000/svg" xmlns:xlink="http://www.w3.org/1999/xlink" x="0px" y="0px"
	 viewBox="0 0 200 200" style="enable-background:new 0 0 200 200;" xml:space="preserve">
<style type="text/css">
	.st0{fill:#25A589;}
</style>
<path class="st0" d="M155.6,95.2H175V106h-19.3C155.6,106,155.6,95.2,155.6,95.2z M101.4,146.8h10.8v19.3h-10.8V146.8z M157,58.1
	l-13.7,13.7l-7.7-7.7l13.7-13.7L157,58.1z M149.3,150.8l-13.7-13.7l7.7-7.7l13.7,13.7L149.3,150.8L149.3,150.8z M76,129.9l25.7-25.7
	v-52h16.4v58.5c-1.1,1.1-30.5,30.8-30.5,30.8L76,129.9z M111.3,10.7v15.6c40.3,0,73.1,32.8,73.1,73.1c0,40.3-32.8,73.1-73.1,73.1
	c-37,0-67.6-27.6-72.4-63.3l11.1,11l11-11L30.6,78.6L0.1,109l11,11l12-12c4.4,44.8,42.3,79.9,88.2,79.9c48.9,0,88.7-39.8,88.7-88.7
	C200,50.4,160.2,10.7,111.3,10.7z"/>
</svg>
