<?xml version="1.0" encoding="UTF-8" standalone="no"?>
<svg width="32px" height="36px" viewBox="0 0 32 36" version="1.1" xmlns="http://www.w3.org/2000/svg" xmlns:xlink="http://www.w3.org/1999/xlink" xmlns:sketch="http://www.bohemiancoding.com/sketch/ns">
    <!-- Generator: Sketch 3.3 (11970) - http://www.bohemiancoding.com/sketch -->
    <title>Rectangle 686</title>
    <desc>Created with Sketch.</desc>
    <defs></defs>
    <g id="Mockups" stroke="none" stroke-width="1" fill="none" fill-rule="evenodd" sketch:type="MSPage">
        <path d="M19,12.8038476 L19,2.50746124 C19,1.40034552 18.1055038,0.5 17.0020869,0.5 L14.9979131,0.5 C13.8982606,0.5 13,1.39877101 13,2.50746124 L13,12.8038476 L4.08306786,7.65565441 C3.12427753,7.10209655 1.89730735,7.4265802 1.34559887,8.38216731 L0.343511995,10.1178327 C-0.206314255,11.0701597 0.122913961,12.2974617 1.08306786,12.8518068 L10,18 L1.08306786,23.1481932 C0.124277526,23.701751 -0.20819648,24.9265802 0.343511995,25.8821673 L1.34559887,27.6178327 C1.89542512,28.5701597 3.12291396,28.8986907 4.08306786,28.3443456 L13,23.1961524 L13,33.4925388 C13,34.5996545 13.8944962,35.5 14.9979131,35.5 L17.0020869,35.5 C18.1017394,35.5 19,34.601229 19,33.4925388 L19,23.1961524 L27.9169321,28.3443456 C28.8757225,28.8979035 30.1026927,28.5734198 30.6544011,27.6178327 L31.656488,25.8821673 C32.2063143,24.9298403 31.877086,23.7025383 30.9169321,23.1481932 L22,18 L30.9169321,12.8518068 C31.8757225,12.298249 32.2081965,11.0734198 31.656488,10.1178327 L30.6544011,8.38216731 C30.1045749,7.42984031 28.877086,7.10130929 27.9169321,7.65565441 L19,12.8038476 Z" id="Rectangle-686" fill="#333333" sketch:type="MSShapeGroup"></path>
    </g>
</svg>