<?xml version="1.0" encoding="utf-8"?>
<!-- Generator: Adobe Illustrator 19.0.0, SVG Export Plug-In . SVG Version: 6.00 Build 0)  -->
<svg version="1.1" baseProfile="tiny" id="图层_1"
	 xmlns="http://www.w3.org/2000/svg" xmlns:xlink="http://www.w3.org/1999/xlink" x="0px" y="0px" viewBox="0 0 792 612"
	 xml:space="preserve">
<g>
	<path fill-rule="evenodd" fill="#272536" d="M594.2,96.4h-24.1v-7.2c0-21.5-17.5-39-38.8-39h-0.6c-21.4,0-38.8,17.5-38.8,39v7.2
		H277.1v-7.2c0-21.5-17.5-39-38.8-39h-0.6c-21.4,0-38.8,17.5-38.8,39v7.2h-24c-21.4,0-38.8,17.6-38.8,39v372.9
		c0,21.5,17.5,39,38.8,39h419.3c21.4,0,38.8-17.5,38.8-39V135.4C633,114,615.5,96.4,594.2,96.4L594.2,96.4z M507.4,89.3
		c0-12.9,10.4-23.4,23.3-23.4h0.6c12.8,0,23.3,10.5,23.3,23.4v69.4c0,12.9-10.5,23.4-23.3,23.4h-0.6c-12.9,0-23.3-10.5-23.3-23.4
		V89.3L507.4,89.3z M214.4,89.3c0-12.9,10.4-23.4,23.3-23.4h0.6c12.8,0,23.3,10.5,23.3,23.4v69.4c0,12.9-10.5,23.4-23.3,23.4h-0.6
		c-12.9,0-23.3-10.5-23.3-23.4V89.3L214.4,89.3z M594.2,516.1H174.8c-4.2,0-7.8-3.6-7.8-7.8V234.1h434.9v274.1
		C601.9,512.5,598.4,516.1,594.2,516.1L594.2,516.1z"/>
	<polygon fill-rule="evenodd" fill="#272536" points="224.1,290 295.8,290 295.8,325.2 224.1,325.2 224.1,290 	"/>
	<polygon fill-rule="evenodd" fill="#272536" points="349.2,290 420.3,290 420.3,325.2 349.2,325.2 349.2,290 	"/>
	<polygon fill-rule="evenodd" fill="#272536" points="473.8,290 543.7,290 543.7,325.2 473.8,325.2 473.8,290 	"/>
	<polygon fill-rule="evenodd" fill="#272536" points="224.1,361.6 295.8,361.6 295.8,396.3 224.1,396.3 224.1,361.6 	"/>
	<polygon fill-rule="evenodd" fill="#272536" points="349.2,361.6 420.3,361.6 420.3,396.3 349.2,396.3 349.2,361.6 	"/>
	<polygon fill-rule="evenodd" fill="#272536" points="473.8,361.6 543.7,361.6 543.7,396.3 473.8,396.3 473.8,361.6 	"/>
	<polygon fill-rule="evenodd" fill="#272536" points="224.1,431.6 295.8,431.6 295.8,468 224.1,468 224.1,431.6 	"/>
	<polygon fill-rule="evenodd" fill="#272536" points="349.2,431.6 420.3,431.6 420.3,468 349.2,468 349.2,431.6 	"/>
	<polygon fill-rule="evenodd" fill="#272536" points="473.8,431.6 543.7,431.6 543.7,468 473.8,468 473.8,431.6 	"/>
</g>
</svg>
