<?xml version="1.0" standalone="no"?><!DOCTYPE svg PUBLIC "-//W3C//DTD SVG 1.1//EN" "http://www.w3.org/Graphics/SVG/1.1/DTD/svg11.dtd"><svg class="icon" style="" viewBox="0 0 1024 1024" version="1.1" xmlns="http://www.w3.org/2000/svg" p-id="3000" xmlns:xlink="http://www.w3.org/1999/xlink" width="200" height="200"><defs><style type="text/css"><![CDATA[

]]></style></defs><path d="M860.9792 373.88288l-175.65696 0c21.74976-22.85568 34.7136-51.36384 34.7136-77.33248 0-18.80064-6.4512-35.06176-18.65728-46.96064-12.0832-11.79648-28.48768-18.04288-47.43168-18.04288-27.7504 0-58.55232 13.90592-82.37056 37.15072-6.7584 6.61504-12.65664 13.80352-17.77664 21.2992-5.12-7.49568-11.01824-14.68416-17.79712-21.2992-23.81824-23.26528-54.62016-37.15072-82.37056-37.15072-18.96448 0-35.36896 6.2464-47.4112 18.0224-12.22656 11.91936-18.67776 28.18048-18.67776 46.98112 0 25.96864 12.96384 54.4768 34.7136 77.33248L246.5792 373.88288c-11.32544 0-20.48 9.15456-20.48 20.48l0 142.68416c0 11.32544 9.15456 20.48 20.48 20.48l32.60416 0 0 226.97984c0 11.32544 9.15456 20.48 20.48 20.48l508.2112 0c11.32544 0 20.48-9.15456 20.48-20.48L828.35456 557.52704l32.62464 0c11.32544 0 20.48-9.15456 20.48-20.48l0-142.68416C881.4592 383.03744 872.30464 373.88288 860.9792 373.88288zM468.04992 516.56704l0-101.72416 171.4176 0 0 101.72416L468.04992 516.56704zM639.488 557.52704l0 206.49984-171.4176 0L468.0704 557.52704 639.488 557.52704zM653.94688 272.50688c5.59104 0 13.4144 1.10592 18.82112 6.38976 4.1984 4.096 6.32832 10.0352 6.32832 17.65376 0 16.36352-9.9328 36.20864-25.92768 51.8144-16.11776 15.74912-36.74112 25.51808-53.78048 25.51808-5.59104 0-13.4144-1.10592-18.80064-6.36928-4.1984-4.096-6.32832-10.05568-6.32832-17.69472 0-16.34304 9.91232-36.20864 25.9072-51.79392C616.28416 282.27584 636.88704 272.50688 653.94688 272.50688zM434.7904 278.85568c5.38624-5.26336 13.2096-6.36928 18.80064-6.36928 17.05984 0 37.66272 9.78944 53.78048 25.51808 15.9744 15.60576 25.9072 35.4304 25.92768 51.77344 0 7.65952-2.12992 13.6192-6.32832 17.69472-5.40672 5.28384-13.23008 6.38976-18.82112 6.38976-17.03936 0-37.66272-9.78944-53.78048-25.51808-15.9744-15.62624-25.92768-35.45088-25.92768-51.8144C428.46208 288.91136 430.57152 282.97216 434.7904 278.85568zM267.0592 414.84288l160.03072 0 0 101.72416-127.44704 0L267.0592 516.56704 267.0592 414.84288zM320.14336 557.52704l106.96704 0 0 206.49984-106.96704 0L320.14336 557.52704zM787.39456 764.02688l-106.96704 0L680.42752 557.52704l106.96704 0L787.39456 764.02688zM840.4992 516.56704l-32.62464 0-127.44704 0 0-101.72416 160.0512 0L840.47872 516.56704z" p-id="3001" fill="#fff"></path></svg>