<?xml version="1.0" encoding="utf-8"?>
<!-- Generator: Adobe Illustrator 19.0.0, SVG Export Plug-In . SVG Version: 6.00 Build 0)  -->
<svg version="1.1" baseProfile="tiny" id="图层_1"
	 xmlns="http://www.w3.org/2000/svg" xmlns:xlink="http://www.w3.org/1999/xlink" x="0px" y="0px" viewBox="0 0 907.1 652"
	 xml:space="preserve">
<g>
	<path fill-rule="evenodd" fill="#272536" d="M716.8,53.5c0-27.9-23.6-50.6-52.6-50.6H243.6c-29,0-52.6,22.7-52.6,50.6v546
		c0,27.9,23.6,50.5,52.6,50.5h65.3h73c11.2,0,20.2-9,20.2-20.2c0-11.2-9.1-20.2-20.2-20.2h-73h-65.3c-6.7,0-12.1-4.5-12.1-10.1v-546
		c0-5.6,5.4-10.1,12.1-10.1h296.7v0.1h40.5v-0.1h83.5c6.7,0,12.1,4.5,12.1,10.1V465l22.1,2.1c7.8,0.7,14.5,5.9,17.1,13.3
		c0.5,1.3,0.7,2.7,0.9,4.1h0.3L716.8,53.5L716.8,53.5L716.8,53.5z"/>
	<path fill-rule="evenodd" fill="#272536" d="M541.6,452.4c-6-0.5-11.9,1.6-16.1,5.8c-4.2,4.2-6.4,10.1-5.9,16.1l13.5,157.4
		c0.7,7.8,5.8,14.5,13.2,17.3c2.3,0.8,4.6,1.2,7,1.2c5.3,0,10.4-2.1,14.3-5.9l108.8-108.3V465L541.6,452.4L541.6,452.4z M569.7,585
		l-7.7-90.1l89.8,8.4L569.7,585L569.7,585z"/>
	<path fill-rule="evenodd" fill="#272536" d="M715.6,480.4c-2.6-7.4-9.3-12.6-17.2-13.3l-22.1-2v70.9l34.5-34.3
		C716.4,496,718.2,487.8,715.6,480.4L715.6,480.4z"/>
	<path fill-rule="evenodd" fill="#272536" d="M620.7,203.6H307.3c-11.2,0-20.2-9-20.2-20.2c0-11.1,9.1-20.2,20.2-20.2h313.5
		c11.2,0,20.2,9.1,20.2,20.2C641,194.5,631.9,203.6,620.7,203.6L620.7,203.6z"/>
	<path fill-rule="evenodd" fill="#272536" d="M620.7,316.1H307.3c-11.2,0-20.2-9-20.2-20.2c0-11.2,9.1-20.2,20.2-20.2h313.5
		c11.2,0,20.2,9.1,20.2,20.2C641,307,631.9,316.1,620.7,316.1L620.7,316.1z"/>
</g>
</svg>
