<?xml version="1.0" encoding="utf-8"?>
<!-- Generator: Adobe Illustrator 19.0.0, SVG Export Plug-In . SVG Version: 6.00 Build 0)  -->
<svg version="1.1" baseProfile="tiny" id="图层_1"
	 xmlns="http://www.w3.org/2000/svg" xmlns:xlink="http://www.w3.org/1999/xlink" x="0px" y="0px" viewBox="0 0 907.1 652"
	 xml:space="preserve">
<g>
	<path class="upload-sys" fill-rule="evenodd" fill="" d="M535.4,582.7c0,0-4.8,5-9.6,9c-9.4,7.7-10,1.9-19.4-2.3c0,0-22.6-10.7-28.8-2.7
		c-10.7,14.4,18,24.5,27.6,26.8c10,2.5,22.5,2.5,31.3-8.2C536.6,605.3,547.3,581,535.4,582.7L535.4,582.7L535.4,582.7z"/>
	<path class="upload-sys" fill-rule="evenodd" fill="" d="M452.3-43C226.3-43,43,140,43,365.7c0,49.1,8.6,96.2,24.6,139.7c1.9,0.8,3.6,1,5,0.6
		c13.8-3.5,26.9,1.7,13.8-31l68.1,1.2c25.3,0.4,31.1-1.7,49.7,15.3c8.8,8,17.7,16.1,26.5,24.1c0,0,36.8,22,36.8-5.2l-28.4-33.9
		c-16.7-19.9-28.6-24.9-18.4-51.5c5.8-15.3,18.8-30.3,48.2-18.8l41.3,47.7c0,0,9.6,4.4,20.5-6.5c6.5-6.5,25.5,13.6,39.9,31
		c28,33.9,48.2,38.9,92.9,32c18.6-2.9,39.5-5.4,44.3-2.9c7.3,3.6,31.7,17.6,43.4,3.6c11.7-14,28,1.5,29.4,2.9c1,1,14.6,4.6,25.9,4.6
		c6.7,0.2,13.4-6.5,15.7-10c7.5-11.1,14.8-1.5,16.5,16.5c0.6,7.1-1.3,22.4-8.3,42.7c-10.8,31.4-33.4,74.9-76.4,116.5
		c0,0-8.6,19.7,23.6,3.6c32.4-16.1,29.4-42.5,61-49.8c31.7-7.5,34.5-13.2,28.6-23.6c-5.8-10.2,8.1-14.6,20-13.2
		c8.4,1.2,62.2,0.6,96.9,3.5c48.7-67.3,77.3-149.8,77.3-239.1C861.4,140,678.2-43,452.3-43L452.3-43L452.3-43z M754.9,435.4
		c-86.2,87.2-283.8,43.9-283.8,43.9c-151.6-39.3-253.9-120-301.8-160c-48.2-40-56.6-81.2-16.5-108.4c39.9-27.4,97.1-19.2,112.3-17.2
		c15,1.7,14.6,13.8,8.6,16.5c-5.9,2.7-5,14.6-5,14.6c-8.3,46.7,165,105.4,195.7,110.9c30.7,5.4,24.8-11.1,17.5-11.5
		c-7.3-0.4-11.1-16.9-11.1-16.9c-2.7-29.3-17.3-31-20.7-37.2c-3.4-6.1-79.6-16.5-133.4-43.1c-53.7-26.8-32-79.5-21.7-127
		c10.4-47.5,46.8-73.6,73.7-67.4c15.9,3.6,43.8,6.5,63.7,8.4c16.9,1.5,26.5,1.3,42.8-1.7l21.1-4C565.3,30,597.4,56,597.4,56
		c20.9,18.2,40.7,61.9,54.7,100.4c10,27,22.6,57.1,22.1,86.4c-0.6,23.2-5.4,51.7-5.4,51.7l22.1-42.5c68.1,29.9,92.1,56,92.1,56
		C825.7,371.2,754.9,435.4,754.9,435.4L754.9,435.4L754.9,435.4z"/>
</g>
</svg>
