<?xml version="1.0" encoding="utf-8"?>
<!-- Generator: Adobe Illustrator 19.0.0, SVG Export Plug-In . SVG Version: 6.00 Build 0)  -->
<svg version="1.1" baseProfile="tiny" id="图层_1"
	 xmlns="http://www.w3.org/2000/svg" xmlns:xlink="http://www.w3.org/1999/xlink" x="0px" y="0px" viewBox="0 0 200 200"
	 xml:space="preserve">
<g id="XMLID_2_">
	<path id="XMLID_3_" d="M10.9,86.9h8.8v4c0.8-1.7,1.7-2.9,2.6-3.6c0.9-0.7,2-1,3.3-1c1.4,0,2.9,0.4,4.5,1.3l-2.9,6.7
		c-1.1-0.5-2-0.7-2.6-0.7c-1.2,0-2.2,0.5-2.8,1.5c-1,1.4-1.4,4.1-1.4,8v8.2h-9.4V86.9z"/>
	<path id="XMLID_5_" d="M31.2,104.5l9.3-0.9c0.4,1.1,0.9,1.9,1.6,2.4c0.7,0.5,1.6,0.7,2.8,0.7c1.3,0,2.2-0.3,2.9-0.8
		c0.5-0.4,0.8-0.9,0.8-1.5c0-0.7-0.4-1.2-1.1-1.6c-0.5-0.3-1.8-0.6-4-1c-3.2-0.6-5.5-1.1-6.8-1.6c-1.3-0.5-2.3-1.3-3.2-2.4
		c-0.9-1.1-1.3-2.5-1.3-3.9c0-1.6,0.5-3,1.4-4.2c0.9-1.2,2.2-2,3.9-2.6c1.6-0.6,3.8-0.9,6.6-0.9c2.9,0,5.1,0.2,6.4,0.7
		c1.4,0.4,2.5,1.1,3.5,2.1c0.9,0.9,1.7,2.2,2.3,3.8l-8.9,0.9c-0.2-0.8-0.6-1.4-1.1-1.7c-0.7-0.5-1.6-0.7-2.7-0.7
		c-1.1,0-1.8,0.2-2.3,0.6c-0.5,0.4-0.7,0.8-0.7,1.4c0,0.6,0.3,1,0.9,1.4c0.6,0.3,1.9,0.6,4,0.8c3.1,0.4,5.4,0.8,6.9,1.5
		s2.7,1.5,3.5,2.7c0.8,1.2,1.2,2.4,1.2,3.8c0,1.4-0.4,2.8-1.3,4.1c-0.8,1.3-2.2,2.4-4,3.2c-1.8,0.8-4.3,1.2-7.5,1.2
		c-4.5,0-7.6-0.6-9.5-1.9C32.9,108.7,31.7,106.9,31.2,104.5z"/>
	<path id="XMLID_7_" d="M58.9,86.9h9.9l5,16.2l4.7-16.2h9.2L78,113c-1.1,3-2.2,5-3.4,6c-1.6,1.5-4.1,2.2-7.4,2.2
		c-1.3,0-3.4-0.2-6.2-0.6l-0.7-6.5c1.3,0.4,2.8,0.6,4.5,0.6c1.1,0,2-0.3,2.7-0.8c0.7-0.5,1.3-1.4,1.7-2.7L58.9,86.9z"/>
	<path id="XMLID_9_" d="M88.6,104.5l9.3-0.9c0.4,1.1,0.9,1.9,1.6,2.4c0.7,0.5,1.6,0.7,2.8,0.7c1.3,0,2.2-0.3,2.9-0.8
		c0.5-0.4,0.8-0.9,0.8-1.5c0-0.7-0.4-1.2-1.1-1.6c-0.5-0.3-1.8-0.6-4-1c-3.2-0.6-5.5-1.1-6.8-1.6c-1.3-0.5-2.3-1.3-3.2-2.4
		c-0.9-1.1-1.3-2.5-1.3-3.9c0-1.6,0.5-3,1.4-4.2c0.9-1.2,2.2-2,3.9-2.6c1.6-0.6,3.8-0.9,6.6-0.9c2.9,0,5.1,0.2,6.4,0.7
		c1.4,0.4,2.5,1.1,3.5,2.1c0.9,0.9,1.7,2.2,2.3,3.8l-8.9,0.9c-0.2-0.8-0.6-1.4-1.1-1.7c-0.7-0.5-1.6-0.7-2.7-0.7
		c-1.1,0-1.8,0.2-2.3,0.6c-0.5,0.4-0.7,0.8-0.7,1.4c0,0.6,0.3,1,0.9,1.4c0.6,0.3,1.9,0.6,4,0.8c3.1,0.4,5.4,0.8,6.9,1.5
		c1.5,0.6,2.7,1.5,3.5,2.7c0.8,1.2,1.2,2.4,1.2,3.8c0,1.4-0.4,2.8-1.3,4.1c-0.9,1.3-2.2,2.4-4,3.2c-1.8,0.8-4.3,1.2-7.5,1.2
		c-4.5,0-7.6-0.6-9.5-1.9C90.4,108.7,89.2,106.9,88.6,104.5z"/>
	<path id="XMLID_11_" d="M119.4,77.6h9.4v33.7h-9.4V77.6z"/>
	<path id="XMLID_13_" d="M133.6,99.2c0-3.7,1.3-6.8,3.8-9.2c2.5-2.4,5.9-3.6,10.2-3.6c4.9,0,8.6,1.4,11.1,4.3c2,2.3,3,5.1,3,8.4
		c0,3.8-1.2,6.8-3.7,9.2c-2.5,2.4-5.9,3.6-10.3,3.6c-3.9,0-7.1-1-9.5-3C135,106.4,133.6,103.2,133.6,99.2z M142.9,99.2
		c0,2.2,0.4,3.8,1.3,4.8c0.9,1,2,1.6,3.3,1.6c1.3,0,2.5-0.5,3.3-1.5c0.9-1,1.3-2.7,1.3-4.9c0-2.1-0.4-3.7-1.3-4.7
		c-0.9-1-2-1.6-3.2-1.6c-1.4,0-2.5,0.5-3.4,1.6S142.9,97,142.9,99.2z"/>
	<path id="XMLID_16_" d="M183.1,86.9h8.8v23l0,1.1c0,1.5-0.3,3-1,4.4c-0.7,1.4-1.5,2.5-2.6,3.4c-1.1,0.9-2.4,1.5-4.1,1.9
		c-1.7,0.4-3.6,0.6-5.7,0.6c-4.9,0-8.3-0.7-10.1-2.2c-1.8-1.5-2.7-3.4-2.7-5.9c0-0.3,0-0.7,0-1.2l9.1,1c0.2,0.8,0.6,1.4,1.1,1.7
		c0.7,0.5,1.6,0.7,2.6,0.7c1.3,0,2.4-0.4,3-1.1c0.7-0.7,1-2,1-3.8v-3.7c-0.9,1.1-1.8,1.9-2.8,2.4c-1.4,0.8-3,1.1-4.7,1.1
		c-3.3,0-5.9-1.4-7.9-4.3c-1.4-2-2.1-4.7-2.1-8c0-3.8,0.9-6.7,2.8-8.7c1.8-2,4.2-3,7.2-3c1.9,0,3.5,0.3,4.7,1
		c1.2,0.6,2.4,1.7,3.5,3.2V86.9z M174.3,98.8c0,1.8,0.4,3.1,1.1,3.9c0.8,0.8,1.7,1.3,3,1.3c1.2,0,2.1-0.4,2.9-1.3
		c0.8-0.9,1.2-2.2,1.2-4c0-1.8-0.4-3.1-1.2-4.1c-0.8-0.9-1.8-1.4-3-1.4c-1.2,0-2.1,0.4-2.9,1.3C174.6,95.3,174.3,96.7,174.3,98.8z"
		/>
</g>
</svg>
