<?xml version="1.0" encoding="utf-8"?>
<!-- Generator: Adobe Illustrator 19.0.0, SVG Export Plug-In . SVG Version: 6.00 Build 0)  -->
<svg version="1.1" id="图层_1" xmlns="http://www.w3.org/2000/svg" xmlns:xlink="http://www.w3.org/1999/xlink" x="0px" y="0px"
	 viewBox="0 0 200 200" style="enable-background:new 0 0 200 200;" xml:space="preserve">
<style type="text/css">
	.st0{fill:#A7B1C1;}
</style>
<path class="st0" d="M64.8,155V75.7c0-3.2-2.4-5.6-5.4-5.6l-16.1,0c-2.9,0-5.4,2.7-5.4,5.6V155H64.8L64.8,155z M98.9,155V41.6
	c0-3.2-2.4-5.8-5.4-5.8H77.5c-2.9,0-5.4,2.7-5.4,5.8V155H98.9L98.9,155z M132.9,155v-50.1c0-3.2-2.4-5.8-5.4-5.8h-16.1
	c-2.9,0-5.4,2.7-5.4,5.8l0,50.1H132.9L132.9,155z M167,155V75.7c0-3.2-2.4-5.6-5.4-5.6h-16.1c-2.9,0-5.4,2.7-5.4,5.6V155H167
	L167,155z"/>
</svg>
