<?xml version="1.0" encoding="utf-8"?>
<!-- Generator: Adobe Illustrator 19.0.0, SVG Export Plug-In . SVG Version: 6.00 Build 0)  -->
<svg version="1.1" id="图层_1" xmlns="http://www.w3.org/2000/svg" xmlns:xlink="http://www.w3.org/1999/xlink" x="0px" y="0px"
	 viewBox="-149 151 200 200" style="enable-background:new -149 151 200 200;" xml:space="preserve">
<style type="text/css">
	.st0{fill:#F57564;}
</style>
<path class="st0" d="M15.2,184.3c0-6.8-5.8-12.3-12.8-12.3h-102.7c-7.1,0-12.8,5.5-12.8,12.3v133.3c0,6.8,5.8,12.3,12.8,12.3h15.9
	h17.8c2.7,0,4.9-2.2,4.9-4.9c0-2.7-2.2-4.9-4.9-4.9h-17.8h-15.9c-1.6,0-3-1.1-3-2.5V184.3c0-1.4,1.3-2.5,3-2.5h72.4v0h9.9v0H2.3
	c1.6,0,3,1.1,3,2.5v100.5l5.4,0.5c1.9,0.2,3.5,1.4,4.2,3.2c0.1,0.3,0.2,0.7,0.2,1h0.1L15.2,184.3L15.2,184.3z M-27.6,281.7
	c-1.5-0.1-2.9,0.4-3.9,1.4c-1,1-1.6,2.5-1.4,3.9l3.3,38.4c0.2,1.9,1.4,3.6,3.2,4.2c0.6,0.2,1.1,0.3,1.7,0.3c1.3,0,2.5-0.5,3.5-1.4
	l26.6-26.5v-17.3L-27.6,281.7z M-20.7,314.1l-1.9-22l21.9,2.1L-20.7,314.1z M14.9,288.6c-0.6-1.8-2.3-3.1-4.2-3.3l-5.4-0.5v17.3
	l8.4-8.4C15.1,292.4,15.5,290.4,14.9,288.6 M-8.3,221h-76.5c-2.7,0-4.9-2.2-4.9-4.9c0-2.7,2.2-4.9,4.9-4.9h76.5
	c2.7,0,4.9,2.2,4.9,4.9C-3.3,218.8-5.5,221-8.3,221 M-8.3,248.4h-76.5c-2.7,0-4.9-2.2-4.9-4.9c0-2.7,2.2-4.9,4.9-4.9h76.5
	c2.7,0,4.9,2.2,4.9,4.9C-3.3,246.2-5.5,248.4-8.3,248.4"/>
</svg>
