<?xml version="1.0" encoding="utf-8"?>
<!-- Generator: Adobe Illustrator 21.0.0, SVG Export Plug-In . SVG Version: 6.00 Build 0)  -->
<svg version="1.1" id="图层_1" xmlns="http://www.w3.org/2000/svg" xmlns:xlink="http://www.w3.org/1999/xlink" x="0px" y="0px"
	 viewBox="0 0 217.7 65.7" style="enable-background:new 0 0 217.7 65.7;" xml:space="preserve">
<style type="text/css">
	.st0{fill:#FFFFFF;}
</style>
<title>easylog_logo</title>
<g id="图层_2">
	<g id="云日志">
		<circle class="st0" cx="48.2" cy="11.9" r="7.1"/>
		<circle class="st0" cx="7.1" cy="16.5" r="7.1"/>
		<path class="st0" d="M54.9,46.1l9.4,9.4c2.3,2.3,2.3,6.1,0,8.5l0,0c-2.3,2.3-6.1,2.3-8.5,0l-9.4-9.4"/>
		<g id="_编组_">
			<path id="_路径_" class="st0" d="M73.8,20.4h34.2c1.6,0,2.9-1.3,2.9-2.9c0-1.6-1.3-2.9-2.9-2.9H73.8c-1.6,0-2.9,1.3-2.9,2.9
				C70.9,19.1,72.2,20.4,73.8,20.4C73.8,20.4,73.8,20.4,73.8,20.4z"/>
			<path id="_路径_2" class="st0" d="M110.2,30H71.5c-1.6,0-2.9,1.3-2.9,2.9l0,0c0,1.6,1.3,2.9,2.9,2.9h6.7L72,58.2
				c-0.1,0.3-0.1,0.5-0.1,0.8c0,0,0,0.1,0,0.1c0,1.6,1.3,2.9,2.9,2.9h31.3c3.2,0,5.7-2.5,5.7-5.7v-8.4c0-1.6-1.3-2.9-2.9-2.9
				c-1.6,0-2.9,1.3-2.9,2.9c0,0,0,0,0,0v2.7l0,0v2.8c0,1.6-1.3,2.9-2.9,2.9l0,0H78.5l5.7-20.5h26.1c1.6,0,2.9-1.3,2.9-2.9l0,0
				C113.1,31.3,111.8,30,110.2,30C110.2,30,110.2,30,110.2,30z"/>
		</g>
		<path id="_复合路径_" class="st0" d="M153.2,12.4h-21.7c-5,0-9.1,4.1-9.1,9.1v33.6c0,5,4.1,9.1,9.1,9.1h21.7
			c5,0,9.1-4.1,9.1-9.1V21.5C162.3,16.5,158.2,12.5,153.2,12.4z M156.8,35.4H128V22.9c0-2.5,2-4.5,4.5-4.5h19.7c2.5,0,4.5,2,4.5,4.5
			L156.8,35.4z M156.8,54c0,2.5-2,4.5-4.5,4.5h-19.7c-2.5,0-4.6-2.1-4.6-4.6c0,0,0,0,0,0V41.6h28.8V54z"/>
		<g id="_编组_2">
			<path id="_路径_3" class="st0" d="M174.7,23.4h38.7c1.6,0,2.9-1.3,2.9-2.9c0-1.6-1.3-2.9-2.9-2.9h-38.7c-1.6,0-2.9,1.3-2.9,2.9
				C171.8,22.1,173.1,23.4,174.7,23.4C174.7,23.4,174.7,23.4,174.7,23.4z"/>
			<path id="_路径_4" class="st0" d="M176.8,38.5h34.5c1.6-0.2,2.7-1.6,2.5-3.2c-0.2-1.3-1.2-2.4-2.5-2.5h-34.5
				c-1.6,0.2-2.7,1.6-2.5,3.2C174.4,37.3,175.5,38.4,176.8,38.5z"/>
			<path id="_路径_5" class="st0" d="M196.9,36V13.2c-0.2-1.6-1.6-2.7-3.2-2.5c-1.3,0.2-2.4,1.2-2.5,2.5V36
				c0.2,1.6,1.6,2.7,3.2,2.5C195.7,38.4,196.8,37.3,196.9,36z"/>
			<path id="_路径_6" class="st0" d="M199.9,52.1v-7.3c-0.2-1.6-1.6-2.7-3.2-2.5c-1.3,0.2-2.4,1.2-2.5,2.5v7.3
				c0.2,1.6,1.6,2.7,3.2,2.5C198.7,54.5,199.7,53.4,199.9,52.1z"/>
			<path id="_路径_7" class="st0" d="M217.6,59.3l-3.6-15c-0.6-1.5-2.2-2.3-3.7-1.7c-1.2,0.5-2,1.7-1.9,3l3.6,15
				c0.6,1.5,2.2,2.3,3.7,1.7C217,61.9,217.7,60.6,217.6,59.3z"/>
			<path id="_路径_8" class="st0" d="M175.2,61.5l4.6-16.5c0.3-1.6-0.8-3.1-2.4-3.3c-1.3-0.2-2.7,0.5-3.2,1.8l-4.6,16.5
				c-0.3,1.6,0.8,3.1,2.4,3.3C173.4,63.5,174.7,62.7,175.2,61.5z"/>
			<path id="_路径_9" class="st0" d="M203.5,57.2h-12.6c-1.2-0.1-2.1-1-2.1-2.2v-9.5c-0.2-1.6-1.6-2.7-3.2-2.5
				c-1.3,0.2-2.4,1.2-2.5,2.5v11.7l0,0l0,0c0,3.1,2.5,5.7,5.7,5.7h14.7c1.6-0.2,2.7-1.6,2.5-3.2C205.9,58.4,204.8,57.3,203.5,57.2
				L203.5,57.2z"/>
		</g>
		<path class="st0" d="M51,8.8C39.3-2.9,20.4-3,8.7,8.7S-3,39.3,8.7,51S39.3,62.7,51,51c0,0,0,0,0,0l0,0C62.7,39.3,62.7,20.4,51,8.8
			z M46.2,46.2L46.2,46.2c-9,9-23.6,9-32.6,0s-9-23.6,0-32.6c9-9,23.6-9,32.6,0C55.2,22.6,55.2,37.2,46.2,46.2
			C46.2,46.2,46.2,46.2,46.2,46.2z"/>
		<circle class="st0" cx="28.2" cy="26.3" r="7.1"/>
		<polygon class="st0" points="28.2,27.9 6.6,17.6 7.7,15.2 27.9,24.8 47.6,10.9 49.1,13.1 		"/>
	</g>
</g>
</svg>
